<svg width="215" height="150" viewBox="0 0 215 150" fill="none" xmlns="http://www.w3.org/2000/svg">
<mask id="mask0_661_22505" style="mask-type:alpha" maskUnits="userSpaceOnUse" x="122" y="24" width="63" height="104">
<path d="M165.319 24.3462C165.49 24.3416 165.49 24.3416 165.665 24.3369C166.696 24.3342 167.499 24.6977 168.398 25.1755C169.003 25.4847 169.618 25.751 170.245 26.0123C171.396 26.495 172.512 27.039 173.631 27.5903C174.95 28.2395 176.275 28.8663 177.626 29.4472C177.699 29.4786 177.772 29.51 177.847 29.5423C178.537 29.8385 179.229 30.1295 179.924 30.4142C181.585 31.0957 183.067 31.9435 184.546 32.9629C184.477 33.4557 184.303 33.7899 184.055 34.218C183.096 36.0416 182.9 38.2438 182.552 40.2528C182.535 40.3516 182.518 40.4504 182.501 40.5522C182.483 40.6509 182.466 40.7496 182.449 40.8513C182.145 42.5996 181.799 44.3525 181.115 45.9983C180.711 46.9756 180.538 47.892 180.426 48.9414C180.122 51.6505 180.122 51.6505 179.547 52.8094C179.28 53.3536 179.14 53.7895 179.126 54.3971C179.123 54.4978 179.119 54.5986 179.116 54.7024C179.11 54.9118 179.105 55.1213 179.1 55.3308C179.077 55.9867 178.946 56.4304 178.682 57.0371C178.631 57.3915 178.622 57.7436 178.616 58.1013C178.601 58.7384 178.55 59.2501 178.33 59.8555C178.289 60.2396 178.286 60.629 178.385 61.0046C179.08 63.9256 178.432 67.4203 178.162 70.386C177.844 73.7518 177.844 73.7518 177.919 77.1253C177.987 77.9701 177.999 78.8107 178 79.6579C178.001 79.8027 178.003 79.9474 178.004 80.0965C178.005 80.7616 177.985 81.3817 177.846 82.0332C177.722 82.635 177.784 83.0818 177.956 83.6654C178.001 83.8311 178.046 83.9968 178.09 84.1627C178.112 84.2425 178.133 84.3223 178.155 84.4046C178.686 86.5303 178.404 88.9133 177.363 90.8307C177.245 91.3336 177.345 91.7234 177.443 92.2259C177.534 92.7676 177.553 93.3051 177.577 93.8532C177.652 95.5211 177.917 97.0445 178.366 98.6515C178.741 100.08 178.936 101.57 178.932 103.045C178.932 103.188 178.932 103.188 178.932 103.334C178.932 103.534 178.932 103.735 178.931 103.935C178.931 104.234 178.931 104.533 178.932 104.832C178.932 105.788 178.913 106.735 178.849 107.689C178.797 108.478 178.821 109.238 178.886 110.028C178.918 110.501 178.924 110.968 178.919 111.442C178.919 111.524 178.918 111.606 178.917 111.691C178.915 111.86 178.913 112.029 178.912 112.198C178.897 113.579 178.915 114.944 179.051 116.32C179.12 117.022 179.172 117.722 179.21 118.426C179.218 118.56 179.218 118.56 179.225 118.697C179.244 119.057 179.263 119.416 179.281 119.776C179.323 120.654 179.385 121.48 179.62 122.331C179.635 122.71 179.635 122.71 179.62 123.057C179.599 123.557 179.659 123.87 179.854 124.327C179.954 124.841 180.004 125.331 179.906 125.846C179.61 126.271 179.162 126.41 178.671 126.527C178.477 126.557 178.477 126.557 178.279 126.587C178.13 126.61 177.982 126.633 177.828 126.657C177.666 126.68 177.503 126.704 177.34 126.727C177.256 126.74 177.172 126.752 177.085 126.765C174.017 127.214 170.933 127.49 167.84 127.696C167.683 127.707 167.683 127.707 167.521 127.718C163.68 127.975 159.836 127.992 155.988 127.99C155.863 127.99 155.739 127.99 155.611 127.99C151.256 127.989 147.144 127.938 142.794 127.733C142.602 127.724 141.64 127.749 141.445 127.733C131.183 126.857 130.362 126.681 127.664 126.089C126.945 125.008 127.458 123.491 127.686 122.299C127.782 121.861 127.782 121.861 127.902 121.496C128.056 120.959 128.055 120.429 128.061 119.874C128.063 119.763 128.065 119.653 128.067 119.539C128.073 119.188 128.078 118.836 128.082 118.485C128.087 118.135 128.093 117.785 128.099 117.436C128.103 117.219 128.106 117.002 128.108 116.785C128.117 116.252 128.143 115.727 128.195 115.196C128.24 114.736 128.257 114.296 128.228 113.834C128.221 113.704 128.214 113.574 128.207 113.441C128.2 113.306 128.192 113.171 128.185 113.031C128.065 110.272 128.316 107.456 129.145 104.808C129.387 103.941 129.369 103.055 129.38 102.161C129.384 101.904 129.389 101.648 129.394 101.391C129.397 101.221 129.4 101.051 129.403 100.881C129.413 100.323 129.451 99.7726 129.5 99.2163C129.549 98.5525 129.493 97.9865 129.364 97.3367C129.259 96.6614 129.276 95.98 129.282 95.2982C129.284 95.0475 129.285 94.7969 129.285 94.5462C129.287 93.8135 129.319 93.1111 129.424 92.3849C129.436 92.1105 129.444 91.8358 129.448 91.5611C129.451 91.4039 129.455 91.2467 129.458 91.0895C129.459 91.0085 129.461 90.9275 129.462 90.8441C129.49 89.491 129.56 88.1751 129.82 86.8435C129.964 85.9589 129.888 85.3348 129.57 84.5021C128.773 82.2548 128.472 80.1366 129.196 77.8299C129.496 76.7061 129.444 75.4891 129.402 74.3367C129.394 74.1254 129.394 74.1254 129.386 73.9098C129.327 72.5316 129.208 71.1593 129.079 69.7861C129.069 69.677 129.059 69.5679 129.049 69.4556C129.02 69.1425 128.989 68.8296 128.959 68.5168C128.95 68.4233 128.941 68.3299 128.932 68.2336C128.88 67.7191 128.779 67.2737 128.603 66.7841C128.572 66.5158 128.551 66.2464 128.537 65.9768C128.513 65.5476 128.484 65.128 128.425 64.7019C128.364 64.2232 128.357 63.7505 128.365 63.2684C128.366 63.0938 128.368 62.9192 128.369 62.7446C128.372 62.474 128.375 62.2035 128.379 61.933C128.383 61.6686 128.385 61.4043 128.387 61.1399C128.388 61.0604 128.39 60.9809 128.392 60.8989C128.395 60.314 128.284 59.828 128.133 59.2683C128.113 58.9072 128.113 58.5696 128.173 58.2123C128.351 57.0698 128.145 55.7601 127.772 54.6686C127.649 54.2877 127.636 53.9651 127.628 53.5654C127.571 52.3773 127.26 51.2547 126.961 50.1084C126.926 49.9739 126.891 49.8393 126.855 49.7007C126.817 49.5582 126.78 49.4157 126.742 49.2689C126.684 49.0434 126.625 48.8179 126.566 48.5923C126.526 48.4384 126.486 48.2844 126.446 48.1305C126.093 46.7809 125.779 45.4249 125.487 44.0608C125.313 43.2634 125.099 42.5031 124.832 41.7323C124.697 41.3069 124.637 40.8914 124.586 40.4494C124.447 39.4597 124.236 38.4894 124.001 37.519C123.961 37.3568 123.923 37.1944 123.885 37.0318C123.58 35.7271 123.135 34.5564 122.387 33.4327C122.387 33.3164 122.387 33.2002 122.387 33.0804C122.611 32.9013 122.825 32.7528 123.068 32.6033C123.179 32.5342 123.179 32.5342 123.292 32.4638C123.536 32.3143 123.782 32.1683 124.029 32.0235C124.108 31.9769 124.187 31.9304 124.268 31.8824C125.592 31.1177 126.979 30.5441 128.399 29.9878C130.273 29.2525 132.098 28.4093 133.927 27.5683C134.27 27.4106 134.613 27.2534 134.957 27.0961C135.198 26.9854 135.438 26.8739 135.679 26.7624C136.536 26.3676 137.396 26.0056 138.288 25.6967C138.79 25.5179 139.19 25.2792 139.627 24.9774C140.395 24.6094 141.141 24.5741 141.98 24.5884C142.113 24.5894 142.245 24.5903 142.382 24.5914C143.664 24.608 144.944 24.6689 146.224 24.7261C151.345 24.955 156.423 24.8221 161.539 24.5085C162.798 24.4316 164.057 24.363 165.319 24.3462Z" fill="#C91A2F"/>
</mask>
<g mask="url(#mask0_661_22505)">
<g opacity="0.1">
<path d="M121 124.484C127.218 125.527 131.237 124.172 136.981 124.209C145.747 124.265 151.424 125.225 156.5 125.354C163.462 125.53 170.985 123.984 176.827 124.137C184.887 124.347 187.205 125.191 192 124.367" stroke="white" stroke-miterlimit="10" stroke-linecap="round"/>
<path d="M121.514 120.009C127.644 121.019 131.604 119.703 137.265 119.74C145.904 119.796 151.523 120.72 156.526 120.845C163.387 121.017 170.775 119.524 176.532 119.672C184.508 119.877 186.81 120.702 191.485 119.913" stroke="white" stroke-width="0.979" stroke-miterlimit="10" stroke-linecap="round"/>
<path d="M122.026 115.535C128.069 116.513 131.97 115.236 137.548 115.272C146.059 115.327 151.622 116.215 156.55 116.337C163.311 116.505 170.564 115.065 176.237 115.209C184.127 115.41 186.415 116.215 190.969 115.46" stroke="white" stroke-width="0.958" stroke-miterlimit="10" stroke-linecap="round"/>
<path d="M122.538 111.059C128.494 112.004 132.335 110.766 137.829 110.802C146.214 110.857 151.719 111.708 156.574 111.828C163.233 111.992 170.352 110.604 175.939 110.744C183.745 110.94 186.019 111.725 190.452 111.004" stroke="white" stroke-width="0.937" stroke-miterlimit="10" stroke-linecap="round"/>
<path d="M123.052 106.585C128.92 107.497 132.702 106.299 138.113 106.334C146.37 106.388 151.818 107.204 156.6 107.32C163.158 107.48 170.142 106.145 175.645 106.281C183.365 106.472 185.624 107.238 189.936 106.551" stroke="white" stroke-width="0.916" stroke-miterlimit="10" stroke-linecap="round"/>
<path d="M123.565 102.111C129.347 102.99 133.069 101.832 138.396 101.866C146.526 101.919 151.918 102.699 156.625 102.812C163.082 102.968 169.932 101.686 175.35 101.818C182.984 102.004 185.23 102.75 189.421 102.098" stroke="white" stroke-width="0.895" stroke-miterlimit="10" stroke-linecap="round"/>
<path d="M124.078 97.6356C129.772 98.4815 133.435 97.3633 138.679 97.3972C146.681 97.449 152.016 98.193 156.65 98.3034C163.006 98.4551 169.721 97.2253 175.054 97.3542C182.604 97.5357 184.834 98.2616 188.906 97.6435" stroke="white" stroke-width="0.874" stroke-miterlimit="10" stroke-linecap="round"/>
<path d="M124.592 93.1615C130.198 93.9748 133.802 92.896 138.963 92.9294C146.838 92.9803 152.115 93.6882 156.676 93.7957C162.93 93.9431 169.511 92.7659 174.759 92.8912C182.224 93.0676 184.44 93.7741 188.39 93.1898" stroke="white" stroke-width="0.853" stroke-miterlimit="10" stroke-linecap="round"/>
<path d="M125.104 88.6854C130.623 89.4656 134.167 88.4264 139.244 88.4593C146.992 88.5095 152.213 89.1816 156.699 89.2861C162.853 89.4296 169.299 88.3047 174.462 88.4262C181.842 88.5983 184.043 89.2849 187.873 88.7347" stroke="white" stroke-width="0.832" stroke-miterlimit="10" stroke-linecap="round"/>
<path d="M125.617 84.2114C131.049 84.9586 134.534 83.9591 139.528 83.9915C147.148 84.0407 152.312 84.6766 156.725 84.7784C162.778 84.9176 169.088 83.8455 174.167 83.9631C181.462 84.1302 183.649 84.7973 187.358 84.2812" stroke="white" stroke-width="0.811" stroke-miterlimit="10" stroke-linecap="round"/>
<path d="M126.13 79.7363C131.474 80.4509 134.9 79.491 139.81 79.5224C147.304 79.5709 152.41 80.171 156.749 80.2694C162.701 80.4046 168.877 79.3853 173.871 79.4991C181.08 79.6616 183.253 80.3088 186.842 79.827" stroke="white" stroke-width="0.79" stroke-miterlimit="10" stroke-linecap="round"/>
<path d="M126.644 75.2619C131.901 75.9437 135.267 75.0233 140.094 75.0545C147.46 75.1021 152.51 75.6662 156.775 75.7617C162.626 75.893 168.667 74.9263 173.576 75.036C180.7 75.1938 182.859 75.8213 186.327 75.3738" stroke="white" stroke-width="0.769" stroke-miterlimit="10" stroke-linecap="round"/>
<path d="M127.155 70.7861C132.325 71.4348 135.632 70.5538 140.376 70.5845C147.615 70.6313 152.607 71.1597 156.799 71.2521C162.548 71.3791 168.455 70.4652 173.28 70.5711C180.319 70.724 182.463 71.332 185.81 70.9184" stroke="white" stroke-width="0.748" stroke-miterlimit="10" stroke-linecap="round"/>
<path d="M127.669 66.3128C132.752 66.9285 135.999 66.0874 140.659 66.1176C147.771 66.1635 152.706 66.6556 156.824 66.7454C162.473 66.8683 168.245 66.007 172.985 66.109C179.938 66.2574 182.068 66.8455 185.294 66.4662" stroke="white" stroke-width="0.727" stroke-miterlimit="10" stroke-linecap="round"/>
<path d="M128.183 61.8387C133.178 62.4216 136.366 61.6201 140.943 61.6496C147.927 61.6947 152.806 62.1511 156.85 62.2375C162.397 62.3565 168.035 61.5478 172.69 61.646C179.559 61.7895 181.674 62.358 184.78 62.0128" stroke="white" stroke-width="0.706" stroke-miterlimit="10" stroke-linecap="round"/>
<path d="M128.695 57.3628C133.603 57.9127 136.732 57.1508 141.225 57.1799C148.082 57.2243 152.904 57.6444 156.874 57.7279C162.321 57.8429 167.824 57.0865 172.394 57.1811C179.177 57.3198 181.278 57.8688 184.263 57.5577" stroke="white" stroke-width="0.685" stroke-miterlimit="10" stroke-linecap="round"/>
<path d="M129.209 52.8887C134.03 53.4056 137.099 52.6835 141.509 52.7118C148.239 52.7555 153.003 53.1396 156.9 53.2203C162.245 53.3309 167.614 52.6273 172.099 52.7181C178.797 52.852 180.884 53.3813 183.748 53.1043" stroke="white" stroke-width="0.664" stroke-miterlimit="10" stroke-linecap="round"/>
<path d="M129.721 48.4127C134.454 48.8969 137.464 48.214 141.79 48.2421C148.393 48.2848 153.101 48.6329 156.924 48.7106C162.168 48.8172 167.402 48.1662 171.802 48.2531C178.415 48.3823 180.487 48.8919 183.231 48.6492" stroke="white" stroke-width="0.643" stroke-miterlimit="10" stroke-linecap="round"/>
<path d="M130.234 43.9399C134.88 44.3912 137.831 43.7479 142.074 43.7753C148.55 43.8173 153.2 44.1296 156.949 44.2042C162.093 44.3067 167.192 43.7085 171.507 43.7914C178.035 43.9159 180.093 44.4057 182.716 44.197" stroke="white" stroke-width="0.622" stroke-miterlimit="10" stroke-linecap="round"/>
<path d="M130.748 39.4647C135.307 39.8832 138.198 39.2797 142.358 39.3065C148.706 39.3476 153.299 39.6237 156.975 39.6954C162.017 39.7939 166.982 39.2485 171.212 39.3274C177.655 39.4472 179.698 39.9175 182.201 39.7427" stroke="white" stroke-width="0.6009" stroke-miterlimit="10" stroke-linecap="round"/>
<path d="M131.261 34.9883C135.732 35.3736 138.564 34.8097 142.64 34.8358C148.861 34.8762 153.398 35.1165 157 35.1851C161.941 35.2797 166.771 34.7866 170.916 34.8618C177.274 34.9768 179.303 35.4271 181.685 35.2869" stroke="white" stroke-width="0.5799" stroke-miterlimit="10" stroke-linecap="round"/>
<path d="M131.774 30.5151C136.159 30.8677 138.931 30.3432 142.924 30.3691C149.017 30.4085 153.497 30.6128 157.025 30.6785C161.865 30.7688 166.56 30.3285 170.621 30.3998C176.894 30.51 178.908 30.9409 181.169 30.8348" stroke="white" stroke-width="0.5589" stroke-miterlimit="10" stroke-linecap="round"/>
</g>
</g>
</svg>
