<svg width="215" height="150" viewBox="0 0 215 150" fill="none" xmlns="http://www.w3.org/2000/svg">
<mask id="mask0_661_22505" style="mask-type:alpha" maskUnits="userSpaceOnUse" x="122" y="24" width="63" height="104">
<path d="M165.319 24.3462C165.49 24.3416 165.49 24.3416 165.665 24.3369C166.696 24.3342 167.499 24.6977 168.398 25.1755C169.003 25.4847 169.618 25.751 170.245 26.0123C171.396 26.495 172.512 27.039 173.631 27.5903C174.95 28.2395 176.275 28.8663 177.626 29.4472C177.699 29.4786 177.772 29.51 177.847 29.5423C178.537 29.8385 179.229 30.1295 179.924 30.4142C181.585 31.0957 183.067 31.9435 184.546 32.9629C184.477 33.4557 184.303 33.7899 184.055 34.218C183.096 36.0416 182.9 38.2438 182.552 40.2528C182.535 40.3516 182.518 40.4504 182.501 40.5522C182.483 40.6509 182.466 40.7496 182.449 40.8513C182.145 42.5996 181.799 44.3525 181.115 45.9983C180.711 46.9756 180.538 47.892 180.426 48.9414C180.122 51.6505 180.122 51.6505 179.547 52.8094C179.28 53.3536 179.14 53.7895 179.126 54.3971C179.123 54.4978 179.119 54.5986 179.116 54.7024C179.11 54.9118 179.105 55.1213 179.1 55.3308C179.077 55.9867 178.946 56.4304 178.682 57.0371C178.631 57.3915 178.622 57.7436 178.616 58.1013C178.601 58.7384 178.55 59.2501 178.33 59.8555C178.289 60.2396 178.286 60.629 178.385 61.0046C179.08 63.9256 178.432 67.4203 178.162 70.386C177.844 73.7518 177.844 73.7518 177.919 77.1253C177.987 77.9701 177.999 78.8107 178 79.6579C178.001 79.8027 178.003 79.9474 178.004 80.0965C178.005 80.7616 177.985 81.3817 177.846 82.0332C177.722 82.635 177.784 83.0818 177.956 83.6654C178.001 83.8311 178.046 83.9968 178.09 84.1627C178.112 84.2425 178.133 84.3223 178.155 84.4046C178.686 86.5303 178.404 88.9133 177.363 90.8307C177.245 91.3336 177.345 91.7234 177.443 92.2259C177.534 92.7676 177.553 93.3051 177.577 93.8532C177.652 95.5211 177.917 97.0445 178.366 98.6515C178.741 100.08 178.936 101.57 178.932 103.045C178.932 103.188 178.932 103.188 178.932 103.334C178.932 103.534 178.932 103.735 178.931 103.935C178.931 104.234 178.931 104.533 178.932 104.832C178.932 105.788 178.913 106.735 178.849 107.689C178.797 108.478 178.821 109.238 178.886 110.028C178.918 110.501 178.924 110.968 178.919 111.442C178.919 111.524 178.918 111.606 178.917 111.691C178.915 111.86 178.913 112.029 178.912 112.198C178.897 113.579 178.915 114.944 179.051 116.32C179.12 117.022 179.172 117.722 179.21 118.426C179.218 118.56 179.218 118.56 179.225 118.697C179.244 119.057 179.263 119.416 179.281 119.776C179.323 120.654 179.385 121.48 179.62 122.331C179.635 122.71 179.635 122.71 179.62 123.057C179.599 123.557 179.659 123.87 179.854 124.327C179.954 124.841 180.004 125.331 179.906 125.846C179.61 126.271 179.162 126.41 178.671 126.527C178.477 126.557 178.477 126.557 178.279 126.587C178.13 126.61 177.982 126.633 177.828 126.657C177.666 126.68 177.503 126.704 177.34 126.727C177.256 126.74 177.172 126.752 177.085 126.765C174.017 127.214 170.933 127.49 167.84 127.696C167.683 127.707 167.683 127.707 167.521 127.718C163.68 127.975 159.836 127.992 155.988 127.99C155.863 127.99 155.739 127.99 155.611 127.99C151.256 127.989 147.144 127.938 142.794 127.733C142.602 127.724 141.64 127.749 141.445 127.733C131.183 126.857 130.362 126.681 127.664 126.089C126.945 125.008 127.458 123.491 127.686 122.299C127.782 121.861 127.782 121.861 127.902 121.496C128.056 120.959 128.055 120.429 128.061 119.874C128.063 119.763 128.065 119.653 128.067 119.539C128.073 119.188 128.078 118.836 128.082 118.485C128.087 118.135 128.093 117.785 128.099 117.436C128.103 117.219 128.106 117.002 128.108 116.785C128.117 116.252 128.143 115.727 128.195 115.196C128.24 114.736 128.257 114.296 128.228 113.834C128.221 113.704 128.214 113.574 128.207 113.441C128.2 113.306 128.192 113.171 128.185 113.031C128.065 110.272 128.316 107.456 129.145 104.808C129.387 103.941 129.369 103.055 129.38 102.161C129.384 101.904 129.389 101.648 129.394 101.391C129.397 101.221 129.4 101.051 129.403 100.881C129.413 100.323 129.451 99.7726 129.5 99.2163C129.549 98.5525 129.493 97.9865 129.364 97.3367C129.259 96.6614 129.276 95.98 129.282 95.2982C129.284 95.0475 129.285 94.7969 129.285 94.5462C129.287 93.8135 129.319 93.1111 129.424 92.3849C129.436 92.1105 129.444 91.8358 129.448 91.5611C129.451 91.4039 129.455 91.2467 129.458 91.0895C129.459 91.0085 129.461 90.9275 129.462 90.8441C129.49 89.491 129.56 88.1751 129.82 86.8435C129.964 85.9589 129.888 85.3348 129.57 84.5021C128.773 82.2548 128.472 80.1366 129.196 77.8299C129.496 76.7061 129.444 75.4891 129.402 74.3367C129.394 74.1254 129.394 74.1254 129.386 73.9098C129.327 72.5316 129.208 71.1593 129.079 69.7861C129.069 69.677 129.059 69.5679 129.049 69.4556C129.02 69.1425 128.989 68.8296 128.959 68.5168C128.95 68.4233 128.941 68.3299 128.932 68.2336C128.88 67.7191 128.779 67.2737 128.603 66.7841C128.572 66.5158 128.551 66.2464 128.537 65.9768C128.513 65.5476 128.484 65.128 128.425 64.7019C128.364 64.2232 128.357 63.7505 128.365 63.2684C128.366 63.0938 128.368 62.9192 128.369 62.7446C128.372 62.474 128.375 62.2035 128.379 61.933C128.383 61.6686 128.385 61.4043 128.387 61.1399C128.388 61.0604 128.39 60.9809 128.392 60.8989C128.395 60.314 128.284 59.828 128.133 59.2683C128.113 58.9072 128.113 58.5696 128.173 58.2123C128.351 57.0698 128.145 55.7601 127.772 54.6686C127.649 54.2877 127.636 53.9651 127.628 53.5654C127.571 52.3773 127.26 51.2547 126.961 50.1084C126.926 49.9739 126.891 49.8393 126.855 49.7007C126.817 49.5582 126.78 49.4157 126.742 49.2689C126.684 49.0434 126.625 48.8179 126.566 48.5923C126.526 48.4384 126.486 48.2844 126.446 48.1305C126.093 46.7809 125.779 45.4249 125.487 44.0608C125.313 43.2634 125.099 42.5031 124.832 41.7323C124.697 41.3069 124.637 40.8914 124.586 40.4494C124.447 39.4597 124.236 38.4894 124.001 37.519C123.961 37.3568 123.923 37.1944 123.885 37.0318C123.58 35.7271 123.135 34.5564 122.387 33.4327C122.387 33.3164 122.387 33.2002 122.387 33.0804C122.611 32.9013 122.825 32.7528 123.068 32.6033C123.179 32.5342 123.179 32.5342 123.292 32.4638C123.536 32.3143 123.782 32.1683 124.029 32.0235C124.108 31.9769 124.187 31.9304 124.268 31.8824C125.592 31.1177 126.979 30.5441 128.399 29.9878C130.273 29.2525 132.098 28.4093 133.927 27.5683C134.27 27.4106 134.613 27.2534 134.957 27.0961C135.198 26.9854 135.438 26.8739 135.679 26.7624C136.536 26.3676 137.396 26.0056 138.288 25.6967C138.79 25.5179 139.19 25.2792 139.627 24.9774C140.395 24.6094 141.141 24.5741 141.98 24.5884C142.113 24.5894 142.245 24.5903 142.382 24.5914C143.664 24.608 144.944 24.6689 146.224 24.7261C151.345 24.955 156.423 24.8221 161.539 24.5085C162.798 24.4316 164.057 24.363 165.319 24.3462Z" fill="#C91A2F"/>
</mask>
<g mask="url(#mask0_661_22505)">
<path d="M129.849 94.443C129.897 93.1931 129.983 91.969 129.951 90.636C130.546 87.2341 129.759 80.3319 129.759 80.3319C129.776 78.3288 130.01 76.4928 129.348 74.8014C129.348 74.7987 129.348 74.7961 129.346 74.792C129.164 73.8389 128.959 72.9083 128.736 71.9988L128.736 71.9975C128.734 71.9722 128.729 71.9455 128.726 71.9161C128.719 71.8388 128.711 71.7507 128.701 71.6534L128.701 71.652C128.71 71.6414 128.718 71.6322 128.729 71.6216C128.729 71.6216 128.729 71.6216 128.729 71.6203C128.729 71.6136 128.732 71.5856 128.732 71.5363C128.741 71.4431 128.748 71.2739 128.755 71.038L128.755 71.0367C128.752 71.0354 128.755 71.0327 128.755 71.0314C128.755 70.9954 128.758 70.9568 128.759 70.9168C128.762 70.8768 128.762 70.8355 128.762 70.7929C128.771 70.4544 128.777 70.02 128.773 69.5041C128.773 69.4575 128.771 69.4108 128.772 69.3628C128.77 69.2682 128.768 69.1709 128.766 69.0709C128.764 69.0216 128.764 68.9709 128.762 68.9189C128.762 68.8643 128.76 68.8096 128.758 68.7536C128.755 68.6857 128.753 68.6163 128.751 68.5457C128.747 68.4044 128.743 68.2591 128.736 68.1097C128.734 68.0351 128.729 67.9591 128.727 67.8831C128.704 67.4231 128.675 66.9297 128.634 66.4069C128.624 66.2655 128.612 66.1215 128.599 65.9748C128.589 65.8734 128.579 65.772 128.569 65.668C128.562 65.572 128.552 65.4759 128.542 65.3786C128.447 64.4288 128.318 63.4042 128.138 62.3245C128.132 62.2924 128.127 62.2604 128.122 62.2271C128.112 62.159 128.102 62.0976 128.091 62.0429C128.089 62.0242 128.084 62.0068 128.081 61.9895L128.081 61.9841C128.083 61.7416 133.156 67.3796 134.866 76.2714C134.866 76.2714 136.139 88.4223 135.951 91.9087C136.15 93.3459 136.207 94.6631 136.317 96.0154L129.849 94.443Z" fill="#CAF627"/>
<path d="M178.589 93.4818C178.566 92.1932 178.496 90.9301 178.575 89.5584C177.941 86.0367 179.113 78.9539 179.113 78.9539C179.151 76.8908 178.916 74.9928 179.782 73.2719C179.782 73.2691 179.782 73.2664 179.786 73.2623C180.037 72.2866 180.318 71.3347 180.619 70.4052L180.619 70.4038C180.623 70.3778 180.63 70.3505 180.634 70.3203C180.645 70.2409 180.657 70.1505 180.672 70.0505L180.672 70.0492C180.662 70.038 180.653 70.0282 180.639 70.017C180.639 70.017 180.639 70.017 180.639 70.0156C180.64 70.0087 180.637 69.9799 180.638 69.9291C180.629 69.8328 180.626 69.6583 180.624 69.4152L180.624 69.4139C180.627 69.4126 180.624 69.4098 180.624 69.4084C180.625 69.3713 180.622 69.3314 180.623 69.2903C180.62 69.249 180.621 69.2065 180.622 69.1625C180.622 68.8138 180.627 68.3662 180.647 67.8352C180.648 67.7871 180.652 67.7391 180.653 67.6897C180.658 67.5923 180.663 67.4922 180.668 67.3893C180.673 67.3386 180.674 67.2864 180.678 67.2329C180.679 67.1766 180.683 67.1204 180.688 67.0628C180.692 66.9929 180.697 66.9216 180.702 66.8489C180.711 66.7035 180.721 66.554 180.733 66.4004C180.738 66.3236 180.746 66.2455 180.751 66.1673C180.793 65.6944 180.843 65.1872 180.909 64.6502C180.925 64.5049 180.945 64.357 180.964 64.2063C180.98 64.1022 180.995 63.9982 181.01 63.8913C181.022 63.7927 181.037 63.6941 181.052 63.5942C181.197 62.6192 181.387 61.5681 181.641 60.4619C181.648 60.4291 181.655 60.3963 181.663 60.3621C181.677 60.2924 181.692 60.2295 181.706 60.1734C181.71 60.1543 181.717 60.1366 181.72 60.1188L181.721 60.1133C181.725 59.8634 175.302 65.5098 172.932 74.6123C172.932 74.6123 171.007 87.0846 171.136 90.6805C170.849 92.1542 170.74 93.5088 170.565 94.8979L178.589 93.4818Z" fill="#CAF627"/>
</g>
</svg>
