<svg width="215" height="150" viewBox="0 0 215 150" fill="none" xmlns="http://www.w3.org/2000/svg">
<path d="M165.299 24.3462C165.47 24.3416 165.47 24.3416 165.645 24.3369C166.675 24.3342 167.478 24.6976 168.376 25.1752C168.981 25.4843 169.596 25.7505 170.222 26.0117C171.373 26.4942 172.489 27.0381 173.607 27.5891C174.926 28.2381 176.25 28.8647 177.6 29.4454C177.673 29.4768 177.746 29.5081 177.821 29.5404C178.511 29.8365 179.203 30.1275 179.897 30.4121C181.557 31.0933 183.039 31.9408 184.517 32.9599C184.448 33.4525 184.274 33.7866 184.026 34.2145C183.068 36.0374 182.872 38.2389 182.524 40.2472C182.507 40.3459 182.49 40.4447 182.473 40.5464C182.456 40.6451 182.439 40.7438 182.421 40.8455C182.117 42.5931 181.772 44.3454 181.088 45.9906C180.684 46.9676 180.511 47.8837 180.399 48.9327C180.095 51.6408 180.095 51.6408 179.52 52.7994C179.253 53.3434 179.113 53.7791 179.1 54.3865C179.096 54.4872 179.093 54.5879 179.09 54.6916C179.083 54.901 179.078 55.1104 179.074 55.3199C179.05 55.9755 178.92 56.4191 178.655 57.0255C178.604 57.3798 178.596 57.7318 178.59 58.0894C178.575 58.7262 178.524 59.2378 178.304 59.8429C178.264 60.2269 178.26 60.6162 178.359 60.9917C179.053 63.9116 178.406 67.4051 178.136 70.3697C177.819 73.7344 177.819 73.7344 177.893 77.1066C177.961 77.9512 177.974 78.7915 177.974 79.6384C177.976 79.7831 177.977 79.9277 177.978 80.0768C177.979 80.7417 177.96 81.3616 177.82 82.0129C177.696 82.6144 177.758 83.061 177.93 83.6444C177.975 83.81 178.02 83.9757 178.064 84.1415C178.086 84.2213 178.107 84.3012 178.129 84.3834C178.659 86.5084 178.378 88.8905 177.338 90.8073C177.22 91.3099 177.32 91.6996 177.417 92.2019C177.508 92.7434 177.527 93.2807 177.551 93.8287C177.626 95.496 177.892 97.0188 178.34 98.6253C178.715 100.053 178.909 101.543 178.905 103.018C178.906 103.16 178.906 103.16 178.906 103.306C178.906 103.506 178.906 103.706 178.905 103.907C178.905 104.206 178.905 104.505 178.906 104.804C178.906 105.759 178.887 106.706 178.823 107.659C178.771 108.448 178.795 109.208 178.86 109.998C178.892 110.471 178.897 110.938 178.893 111.411C178.892 111.493 178.892 111.575 178.891 111.66C178.889 111.829 178.887 111.998 178.885 112.167C178.871 113.548 178.888 114.912 179.025 116.288C179.094 116.989 179.146 117.689 179.184 118.392C179.191 118.527 179.191 118.527 179.199 118.664C179.218 119.023 179.237 119.382 179.254 119.742C179.297 120.62 179.358 121.446 179.593 122.296C179.608 122.675 179.608 122.675 179.593 123.023C179.572 123.522 179.633 123.835 179.828 124.292C179.927 124.806 179.978 125.295 179.879 125.811C179.583 126.235 179.135 126.374 178.645 126.491C178.451 126.521 178.451 126.521 178.253 126.551C178.104 126.574 177.956 126.597 177.803 126.621C177.64 126.644 177.477 126.668 177.315 126.691C177.23 126.703 177.146 126.716 177.059 126.729C173.993 127.178 170.911 127.453 167.819 127.66C167.662 127.67 167.662 127.67 167.501 127.681C163.66 127.938 159.819 127.955 155.972 127.953C155.848 127.953 155.724 127.953 155.596 127.953C151.243 127.952 146.898 127.901 142.55 127.696C142.358 127.687 142.358 127.687 142.162 127.678C130.124 126.763 130.065 126.704 127.662 126.053C126.943 124.973 127.456 123.456 127.683 122.264C127.779 121.827 127.779 121.827 127.9 121.461C128.054 120.925 128.053 120.395 128.058 119.84C128.06 119.73 128.062 119.619 128.064 119.505C128.07 119.154 128.075 118.803 128.08 118.452C128.085 118.102 128.09 117.752 128.096 117.403C128.1 117.186 128.103 116.969 128.106 116.752C128.114 116.219 128.141 115.694 128.193 115.164C128.237 114.704 128.254 114.264 128.226 113.802C128.219 113.672 128.212 113.543 128.205 113.409C128.197 113.274 128.19 113.139 128.182 113C128.063 110.241 128.313 107.427 129.141 104.779C129.384 103.913 129.366 103.027 129.376 102.134C129.381 101.877 129.385 101.62 129.391 101.363C129.394 101.194 129.397 101.024 129.4 100.854C129.41 100.296 129.448 99.7459 129.496 99.1899C129.545 98.5263 129.49 97.9605 129.361 97.311C129.256 96.6358 129.273 95.9547 129.279 95.2731C129.281 95.0225 129.281 94.772 129.281 94.5214C129.284 93.789 129.316 93.0868 129.42 92.3609C129.433 92.0865 129.441 91.8119 129.445 91.5373C129.448 91.3802 129.451 91.223 129.454 91.0659C129.456 90.9849 129.458 90.904 129.459 90.8206C129.487 89.4679 129.557 88.1525 129.816 86.8214C129.96 85.9371 129.885 85.3132 129.567 84.4809C128.77 82.2343 128.469 80.1169 129.193 77.811C129.493 76.6876 129.44 75.471 129.398 74.319C129.391 74.1078 129.391 74.1078 129.383 73.8923C129.324 72.5145 129.204 71.1428 129.076 69.77C129.066 69.661 129.056 69.552 129.046 69.4396C129.017 69.1267 128.986 68.8139 128.956 68.5012C128.947 68.4077 128.938 68.3143 128.929 68.2181C128.877 67.7038 128.776 67.2586 128.6 66.7692C128.57 66.5009 128.548 66.2316 128.534 65.9621C128.51 65.533 128.481 65.1135 128.422 64.6877C128.361 64.2091 128.354 63.7365 128.362 63.2547C128.364 63.0801 128.365 62.9056 128.366 62.731C128.369 62.4606 128.373 62.1901 128.377 61.9197C128.38 61.6554 128.382 61.3912 128.384 61.1269C128.386 61.0474 128.387 60.9679 128.389 60.886C128.392 60.3013 128.281 59.8155 128.131 59.256C128.111 58.895 128.11 58.5575 128.17 58.2004C128.348 57.0582 128.143 55.749 127.769 54.6579C127.646 54.2771 127.634 53.9547 127.625 53.5551C127.569 52.3674 127.257 51.2452 126.959 50.0993C126.924 49.9648 126.889 49.8303 126.852 49.6918C126.815 49.5493 126.778 49.4069 126.74 49.2601C126.682 49.0347 126.623 48.8092 126.564 48.5838C126.524 48.4298 126.484 48.276 126.444 48.1221C126.092 46.7729 125.777 45.4174 125.485 44.0538C125.312 43.2567 125.098 42.4967 124.831 41.7262C124.696 41.3009 124.636 40.8856 124.585 40.4437C124.446 39.4544 124.235 38.4844 124 37.5144C123.961 37.3522 123.922 37.1899 123.884 37.0273C123.58 35.7231 123.135 34.5528 122.387 33.4295C122.387 33.3132 122.387 33.197 122.387 33.0773C122.611 32.8983 122.825 32.7498 123.068 32.6004C123.179 32.5313 123.179 32.5313 123.292 32.4609C123.536 32.3115 123.781 32.1655 124.028 32.0207C124.107 31.9742 124.186 31.9277 124.268 31.8797C125.59 31.1153 126.977 30.5419 128.396 29.9859C130.269 29.2507 132.094 28.4078 133.921 27.5672C134.264 27.4096 134.608 27.2523 134.951 27.0951C135.192 26.9845 135.432 26.8731 135.673 26.7615C136.529 26.3668 137.389 26.005 138.281 25.6962C138.782 25.5175 139.183 25.2789 139.619 24.9771C140.387 24.6093 141.132 24.5741 141.971 24.5883C142.103 24.5893 142.236 24.5902 142.373 24.5913C143.654 24.6079 144.933 24.6688 146.213 24.726C151.331 24.9548 156.407 24.8219 161.521 24.5084C162.78 24.4316 164.038 24.363 165.299 24.3462Z" fill="#192C3F"/>
</svg>
