<svg width="215" height="150" viewBox="0 0 215 150" fill="none" xmlns="http://www.w3.org/2000/svg">
<path d="M56.8819 21.4079C57.2127 21.4104 57.5435 21.4117 57.8743 21.413C58.9421 21.4173 60.0099 21.4261 61.0778 21.4358C61.4564 21.4391 61.8349 21.442 62.2135 21.445C63.3513 21.4539 64.4891 21.4652 65.6269 21.478C65.898 21.481 66.1692 21.4836 66.4404 21.4862C72.4996 21.546 72.4996 21.546 73.5217 22.4116C73.7038 22.6117 73.8643 22.8187 74.0253 23.0348C74.4493 23.5421 74.8733 23.9768 75.4163 24.3677C75.9698 24.771 76.233 25.035 76.3338 25.7148C76.2527 27.446 74.8946 29.0572 73.6701 30.2195C70.2661 33.1731 65.9336 34.6585 61.3579 34.439C57.7453 34.2443 54.2847 33.0945 51.5318 30.7897C51.4335 30.7088 51.3352 30.628 51.234 30.5447C49.6204 29.1858 48.2798 27.6107 47.7508 25.5723C47.7413 25.0967 47.8117 24.9075 48.0986 24.5174C48.3512 24.3135 48.613 24.1264 48.8787 23.9387C49.3498 23.5761 49.721 23.1331 50.1112 22.6927C51.7037 21.0125 54.732 21.3898 56.8819 21.4079ZM50.5847 24.2893C51.2086 25.5747 51.2086 25.5747 52.0867 26.7056C52.1473 26.7709 52.208 26.8363 52.2704 26.9037C54.5815 29.3556 57.6232 31.1554 61.1283 31.3835C61.5086 31.3944 61.8876 31.3974 62.268 31.3955C62.4032 31.3949 62.5384 31.3942 62.6777 31.3936C66.1988 31.3451 69.0864 29.9067 71.5419 27.5364C72.3728 26.7015 73.0903 25.7509 73.4333 24.6314C71.7891 24.6188 70.1487 24.6283 68.5055 24.6884C64.3872 24.8293 60.2852 24.7167 56.1701 24.534C55.6599 24.5115 55.1496 24.4896 54.6394 24.4677C53.2878 24.4098 51.9362 24.3502 50.5847 24.2893Z" fill="#192C3F"/>
<path d="M155.316 21.3756C155.767 21.3751 156.217 21.3734 156.668 21.3708C163.6 21.3313 163.6 21.3313 164.947 22.4705C165.044 22.5814 165.141 22.6923 165.241 22.8066C165.369 22.9456 165.369 22.9456 165.499 23.0875C165.903 23.5274 166.295 23.9644 166.651 24.4434C166.535 24.4407 166.42 24.4379 166.301 24.4352C165.065 24.4163 163.838 24.4682 162.605 24.5457C162.437 24.5562 162.269 24.5667 162.1 24.5772C161.837 24.5936 161.575 24.61 161.312 24.6265C155.214 25.0068 149.144 25.0287 143.042 24.7131C142.177 24.6706 141.315 24.6653 140.449 24.6772C140.449 24.6 140.449 24.5229 140.449 24.4434C140.584 24.3209 140.725 24.2051 140.868 24.0926C141.347 23.6926 141.655 23.2622 141.973 22.7285C142.542 22.0787 143.346 21.9088 144.172 21.7909C144.256 21.7773 144.34 21.7637 144.426 21.7496C145.794 21.5382 147.181 21.4952 148.562 21.4566C148.646 21.4542 148.73 21.4518 148.817 21.4493C150.983 21.3883 153.149 21.3777 155.316 21.3756Z" fill="#192C3F"/>
</svg>
