<svg width="215" height="150" viewBox="0 0 215 150" fill="none" xmlns="http://www.w3.org/2000/svg">
<path d="M48.8896 23.9395C48.8896 24.1739 48.5639 24.563 48.5639 24.6427C48.366 24.7621 48.1666 24.8792 47.9661 24.9943C47.7228 25.4711 47.9057 25.8265 48.0498 26.3214C49.4433 28.7796 52.009 31.2596 54.8855 32.6726C57.2103 33.7458 59.319 34.3343 61.8807 34.3224C62.1075 34.3214 62.2334 34.3313 62.9388 34.3224C65.7287 34.2872 67.8996 33.6659 70.3456 32.4894C70.4173 32.449 70.5656 32.3625 70.6395 32.3209C72.8937 31.0288 75.0562 29.3499 75.9079 26.8546C75.9509 26.5813 75.9582 26.3182 75.9574 26.0416C75.9579 25.891 75.9579 25.891 75.9583 25.7372C75.9536 25.4448 75.9536 25.4448 75.8229 25.1115C75.5235 24.9686 75.4054 24.6171 75.107 24.5256C75.107 24.3499 75.107 24.2536 75.107 24.1739C75.6949 24.5256 76.4591 25.1115 76.9473 25.4011C77.2626 25.6971 77.6722 25.8189 78.0721 25.9757C78.2786 26.0587 78.485 26.1418 78.6913 26.2252C78.8055 26.2713 78.9196 26.3174 79.0373 26.3649C79.5135 26.5604 79.9862 26.7633 80.4589 26.9667C81.8535 27.5663 83.251 28.1507 84.6701 28.693C84.806 28.745 84.9418 28.7969 85.0818 28.8504C85.6536 29.0684 86.2257 29.2856 86.7983 29.5019C92.2693 31.5711 91.9984 31.5737 93.6052 32.9657C93.5063 33.4346 93.4235 33.5793 93.33 33.9035C93.2823 34.0182 93.0852 34.6058 93.036 34.724C92.9841 34.8516 92.8544 35.1787 92.8009 35.3101C92.7167 35.5126 92.5929 35.8655 92.507 36.0721C92.0756 37.1423 92.0086 37.2362 91.7428 38.359C91.7138 38.4776 91.596 38.8817 91.5665 39.0027C91.043 41.182 91.4342 42.8229 91.4923 45.0628C91.5449 47.2809 91.0929 49.518 90.0413 51.4862C89.9069 51.7619 89.7998 52.0393 89.699 52.3285C89.6493 52.4708 89.6493 52.4708 89.5986 52.6159C89.5413 52.8983 89.5413 52.8983 89.7457 53.1378C89.8067 53.2091 89.8677 53.2804 89.9306 53.3539C89.8933 53.6175 89.8933 53.6175 89.8111 53.8226C89.6138 53.8613 89.4165 53.9 89.2133 53.9398C89.2088 54.0376 89.2043 54.1353 89.1997 54.236C89.1879 54.4338 89.188 54.4338 89.1759 54.6356C89.169 54.7648 89.162 54.8939 89.1549 55.027C89.1064 55.3727 89.0461 55.62 88.9279 55.9412C88.6715 56.6557 88.5591 57.3907 88.4362 58.1366C88.4171 58.2507 88.4171 58.2507 88.3977 58.3671C87.906 61.2664 87.906 61.2664 87.7802 64.1951C87.7821 64.2962 87.7841 64.3973 87.7861 64.5014C87.7883 64.5789 87.7906 64.6563 87.7929 64.7361C87.8016 65.3351 87.7179 65.8649 87.56 66.4437C87.2169 67.8316 87.1182 69.2458 87.0023 70.666C86.9643 71.1272 86.9229 71.588 86.8812 72.0489C86.7616 73.4295 86.6707 74.7978 86.7269 76.1836C86.731 76.2894 86.7351 76.3951 86.7393 76.5041C86.7792 77.1913 86.9176 77.8134 87.1285 78.4688C87.7482 80.4284 87.4676 82.3565 86.6129 84.211C86.239 85.0584 86.2682 85.7509 86.4261 86.6491C86.4586 86.8349 86.491 87.0208 86.5232 87.2067C86.5487 87.3527 86.5487 87.3527 86.5746 87.5017C86.7411 88.5618 86.7257 89.6153 86.6998 90.6854C86.684 91.5085 86.7433 92.2723 86.8856 93.0835C86.9628 93.5633 86.9825 94.0314 86.9791 94.5163C86.979 94.6572 86.979 94.6572 86.9789 94.8009C86.9666 95.5961 86.837 96.3382 86.6498 97.1105C86.5513 97.6652 86.6094 98.2052 86.6537 98.7637C86.6986 99.3602 86.7053 99.9478 86.689 100.546C86.6423 102.462 86.6886 104.093 87.3269 105.923C88.0409 108.091 87.9402 110.369 87.9121 112.618C87.91 112.794 87.91 112.794 87.9079 112.974C87.9049 113.196 87.9013 113.417 87.8968 113.639C87.8883 114.203 87.9164 114.743 87.988 115.303C88.0471 115.856 88.0509 116.412 88.0649 116.967C88.0731 117.235 88.0814 117.503 88.0899 117.771C88.1027 118.188 88.1148 118.606 88.1252 119.023C88.1354 119.429 88.1485 119.835 88.162 120.241C88.1656 120.426 88.1656 120.426 88.1693 120.613C88.1979 121.39 88.3461 122.04 88.6241 122.768C88.7881 123.23 88.8423 123.687 88.8845 124.172C88.8937 124.26 88.903 124.347 88.9125 124.437C88.9377 124.688 88.9569 124.939 88.9742 125.19C88.9859 125.337 88.9976 125.484 89.0097 125.635C88.9742 126.011 88.9742 126.011 88.7976 126.281C88.3864 126.551 87.9737 126.636 87.4947 126.721C87.3394 126.75 87.3394 126.75 87.181 126.779C83.0704 127.496 78.8148 127.553 74.6497 127.71C73.9216 127.737 73.1935 127.766 72.4655 127.794C72.3757 127.798 72.2859 127.801 72.1934 127.805C70.9881 127.852 69.7853 127.917 68.5818 127.996C66.5633 128.128 64.5518 128.157 62.5292 128.15C62.255 128.149 61.9807 128.149 61.7064 128.149C58.753 128.145 55.8074 128.069 52.8572 127.928C51.9431 127.885 51.0294 127.86 50.1146 127.84C46.2179 127.752 42.2989 127.606 38.424 127.183C38.3388 127.173 38.2537 127.164 38.166 127.155C35.7819 126.895 35.7819 126.895 34.9344 126.479C34.7777 125.878 34.849 125.439 34.9895 124.841C35.0836 124.324 35.1038 123.805 35.1221 123.281C35.1379 122.926 35.1701 122.622 35.2893 122.284C35.6381 121.223 35.5701 120.014 35.6298 118.904C35.7587 116.51 35.7587 116.51 35.9058 115.354C36.0643 114.066 36.0266 112.766 36.0121 111.47C36.0029 110.56 36.0155 109.664 36.1013 108.756C36.1904 107.749 36.1103 106.768 36.0104 105.766C35.687 102.467 36.1063 99.2836 37.1107 96.1203C37.3007 95.4336 37.3349 94.7854 37.318 94.0768C37.3047 93.072 37.3976 92.0793 37.615 91.0948C37.743 90.4288 37.5797 90.0642 37.2359 89.4918C36.11 87.4581 36.2086 85.2776 36.8356 83.0959C36.8992 82.9085 36.9629 82.7211 37.0266 82.5338C37.1217 82.1611 37.0537 81.8482 36.9668 81.4791C36.8264 80.8269 36.8244 80.187 36.8249 79.5235C36.8248 79.405 36.8247 79.2864 36.8246 79.1643C36.8307 78.3057 36.8885 77.4633 37.0013 76.612C37.1345 75.5909 37.0947 74.5905 36.9902 73.5684C36.9802 73.466 36.9702 73.3636 36.96 73.2582C36.9279 72.9295 36.8951 72.601 36.8622 72.2725C36.8179 71.8205 36.7739 71.3686 36.7301 70.9166C36.7193 70.8062 36.7086 70.6957 36.6975 70.582C36.5995 69.569 36.5149 68.5554 36.4403 67.5405C36.4324 67.4357 36.4244 67.3308 36.4162 67.2228C36.4099 67.1346 36.4035 67.0464 36.397 66.9555C36.3748 66.7122 36.3748 66.7122 36.3064 66.4765C36.2462 66.231 36.241 66.0264 36.2481 65.7745C36.2554 65.1147 36.2071 64.4629 36.1524 63.8056C36.144 63.6857 36.1356 63.5659 36.1269 63.4424C36.1125 63.2694 36.1125 63.2694 36.0977 63.0929C36.0896 62.9891 36.0814 62.8854 36.0731 62.7785C36.0006 62.4502 35.8616 62.2865 35.6517 62.0258C35.6136 61.6672 35.5965 61.424 35.7718 61.1024C36.1944 60.2204 35.8186 58.9232 35.6667 58.0048C35.6459 57.8712 35.6251 57.7376 35.6036 57.5999C35.4308 56.4767 35.4308 56.4767 34.9344 55.4633C34.932 55.2252 34.932 55.2252 34.9568 54.9359C34.9686 54.271 34.8442 53.6725 34.6803 53.0316C34.6578 52.9374 34.6354 52.8432 34.6122 52.7462C34.4775 52.2477 34.3396 51.9192 33.9695 51.548C33.4966 51.053 33.4698 50.53 33.41 49.8748C33.386 49.6571 33.3617 49.4393 33.3372 49.2216C33.3254 49.1098 33.3136 48.998 33.3015 48.8828C33.2624 48.5637 33.2065 48.2524 33.1457 47.9367C32.9605 46.8834 32.9066 45.8146 32.8265 44.7499C32.5461 41.0727 33.547 38.7096 32.3126 35.486C32.2677 35.3784 32.1237 34.9521 32.0774 34.8413C32.0369 34.7463 31.8253 34.2357 31.7835 34.1379C31.6859 33.8286 31.4896 33.5518 31.0781 32.9071C31.3288 32.6885 31.4423 32.5499 31.7248 32.3796C31.8023 32.3321 32.3502 31.9596 32.4302 31.9107C34.2749 30.797 35.0201 30.2038 37.0389 29.4389C39.2914 28.5837 41.5188 27.6899 43.7069 26.6862C43.8587 26.6167 43.8587 26.6167 44.0135 26.5459C45.6876 25.8238 45.6876 25.8238 47.2114 24.8551C47.9465 24.3878 48.3017 24.2911 48.8896 23.9395Z" fill="#192C3F"/>
</svg>
