<svg width="215" height="150" viewBox="0 0 215 150" fill="none" xmlns="http://www.w3.org/2000/svg">
<mask id="mask0_661_22505" style="mask-type:alpha" maskUnits="userSpaceOnUse" x="31" y="23" width="63" height="106">
<path d="M48.9094 23.8721C48.9094 24.1068 48.5839 24.4962 48.5839 24.576C48.3861 24.6955 48.1869 24.8127 47.9865 24.9279C47.7434 25.4052 47.8229 25.8318 47.9669 26.3272C49.0752 29.3721 52.0268 31.1991 54.9015 32.6134C57.2248 33.6876 59.3321 34.2766 61.8922 34.2647C62.1188 34.2637 62.2447 34.2736 62.9496 34.2647C65.7377 34.2294 67.9238 33.7985 70.3516 32.4299C70.4233 32.3896 70.5715 32.3029 70.6454 32.2614C72.8981 30.968 75.0592 29.2876 75.9104 26.79C75.9533 26.5163 75.9607 26.2531 75.9598 25.9762C75.9603 25.8254 75.9603 25.8254 75.9608 25.6715C75.9561 25.3788 75.9561 25.3788 75.8254 25.0452C75.5262 24.9022 75.4082 24.5504 75.11 24.4587C75.11 24.2829 75.11 24.1865 75.11 24.1067C75.6975 24.4587 76.4612 25.0452 76.9491 25.3351C77.2642 25.6314 77.6735 25.7533 78.0732 25.9102C78.2795 25.9932 78.4858 26.0765 78.692 26.16C78.8061 26.2061 78.9202 26.2522 79.0377 26.2998C79.5136 26.4954 79.986 26.6986 80.4585 26.9021C81.8521 27.5023 83.2488 28.0872 84.667 28.6301C84.8027 28.6821 84.9385 28.7341 85.0784 28.7876C85.6498 29.0058 86.2216 29.2232 86.7938 29.4397C92.2612 31.5108 91.9906 31.5134 93.5963 32.9067C93.4975 33.376 93.4148 33.5209 93.3213 33.8454C93.2736 33.9602 93.0766 34.5484 93.0275 34.6667C92.9757 34.7944 92.846 35.1218 92.7926 35.2534C92.7084 35.456 92.5846 35.8093 92.4988 36.016C92.0677 37.0873 92.0007 37.1812 91.7351 38.305C91.7062 38.4237 91.5884 38.8282 91.5589 38.9493C91.0358 41.1307 91.4267 42.7731 91.4848 45.0151C91.5374 47.2352 91.0856 49.4745 90.0347 51.4445C89.9004 51.7204 89.7933 51.9981 89.6926 52.2876C89.6429 52.43 89.6429 52.43 89.5923 52.5753C89.535 52.8579 89.535 52.8579 89.7393 53.0976C89.8003 53.169 89.8613 53.2404 89.9241 53.3139C89.8868 53.5778 89.8868 53.5778 89.8046 53.7831C89.6075 53.8218 89.4103 53.8605 89.2072 53.9004C89.2028 53.9982 89.1983 54.0961 89.1937 54.1968C89.1819 54.3948 89.1819 54.3948 89.1699 54.5968C89.163 54.7261 89.156 54.8554 89.1489 54.9886C89.1004 55.3346 89.0401 55.5821 88.9221 55.9036C88.6658 56.6188 88.5535 57.3545 88.4306 58.1011C88.4116 58.2153 88.4116 58.2153 88.3922 58.3318C87.9008 61.2338 87.9008 61.2338 87.775 64.1653C87.777 64.2665 87.7789 64.3676 87.7809 64.4718C87.7832 64.5494 87.7854 64.6269 87.7878 64.7067C87.7965 65.3063 87.7128 65.8366 87.555 66.416C87.2122 67.8052 87.1135 69.2207 86.9977 70.6422C86.9597 71.1038 86.9183 71.565 86.8767 72.0263C86.7571 73.4083 86.6663 74.7778 86.7224 76.165C86.7265 76.2708 86.7306 76.3766 86.7349 76.4857C86.7747 77.1735 86.913 77.7962 87.1238 78.4523C87.7431 80.4137 87.4627 82.3436 86.6085 84.1998C86.2348 85.048 86.264 85.7411 86.4218 86.6402C86.4543 86.8262 86.4867 87.0122 86.5189 87.1983C86.5443 87.3445 86.5443 87.3445 86.5702 87.4936C86.7366 88.5547 86.7212 89.6091 86.6953 90.6803C86.6796 91.5041 86.7388 92.2686 86.881 93.0806C86.9582 93.5608 86.9779 94.0293 86.9744 94.5147C86.9743 94.6557 86.9743 94.6557 86.9742 94.7996C86.962 95.5955 86.8325 96.3383 86.6454 97.1113C86.5469 97.6666 86.605 98.207 86.6493 98.7661C86.6942 99.3631 86.7008 99.9513 86.6846 100.55C86.6378 102.468 86.6842 104.1 87.322 105.932C88.0356 108.103 87.9349 110.382 87.9069 112.633C87.9048 112.81 87.9048 112.81 87.9026 112.99C87.8997 113.212 87.8961 113.433 87.8916 113.655C87.8831 114.22 87.9112 114.761 87.9827 115.321C88.0418 115.874 88.0456 116.431 88.0596 116.987C88.0678 117.255 88.0761 117.523 88.0845 117.791C88.0973 118.209 88.1095 118.627 88.1198 119.044C88.1301 119.451 88.1431 119.857 88.1566 120.264C88.1602 120.448 88.1602 120.448 88.1639 120.636C88.1925 121.413 88.3406 122.064 88.6184 122.793C88.7823 123.256 88.8365 123.712 88.8787 124.198C88.8879 124.286 88.8971 124.373 88.9067 124.463C88.9318 124.715 88.951 124.966 88.9683 125.217C88.98 125.364 88.9917 125.511 89.0037 125.662C88.9683 126.038 88.9683 126.038 88.7918 126.309C88.3809 126.58 87.9684 126.665 87.4897 126.75C87.3345 126.778 87.3345 126.778 87.1762 126.808C83.0683 127.525 78.8155 127.582 74.653 127.739C73.9254 127.767 73.1978 127.795 72.4702 127.824C72.3804 127.827 72.2907 127.831 72.1983 127.834C70.9937 127.881 69.7917 127.947 68.5889 128.026C66.5717 128.157 64.5616 128.187 62.5403 128.18C62.2662 128.179 61.9921 128.179 61.718 128.178C58.7664 128.174 55.8228 128.099 52.8745 127.958C51.961 127.915 51.0478 127.889 50.1336 127.869C46.2394 127.782 42.323 127.635 38.4505 127.211C38.3654 127.202 38.2804 127.193 38.1927 127.184C35.8101 126.923 35.8101 126.923 34.9632 126.508C34.8066 125.906 34.8779 125.466 35.0182 124.868C35.1123 124.351 35.1325 123.831 35.1507 123.306C35.1666 122.951 35.1987 122.646 35.3179 122.309C35.6664 121.246 35.5985 120.036 35.6581 118.925C35.787 116.529 35.787 116.529 35.9339 115.372C36.0924 114.082 36.0547 112.781 36.0402 111.485C36.031 110.573 36.0436 109.676 36.1294 108.767C36.2184 107.76 36.1384 106.778 36.0385 105.775C35.7153 102.473 36.1343 99.2864 37.1381 96.1202C37.328 95.4329 37.3622 94.7841 37.3453 94.0748C37.332 93.0691 37.4248 92.0754 37.6421 91.09C37.77 90.4234 37.6068 90.0585 37.2632 89.4856C36.1381 87.4499 36.2366 85.2673 36.8632 83.0837C36.9268 82.8961 36.9904 82.7086 37.0541 82.521C37.149 82.148 37.0812 81.8348 36.9943 81.4653C36.854 80.8126 36.852 80.1721 36.8524 79.5079C36.8524 79.3893 36.8523 79.2706 36.8522 79.1484C36.8582 78.289 36.916 77.4458 37.0288 76.5937C37.1619 75.5717 37.1221 74.5703 37.0177 73.5473C37.0077 73.4448 36.9977 73.3423 36.9874 73.2367C36.9554 72.9078 36.9226 72.579 36.8898 72.2501C36.8454 71.7978 36.8015 71.3454 36.7577 70.893C36.747 70.7825 36.7362 70.6719 36.7251 70.5581C36.6272 69.5442 36.5427 68.5296 36.4682 67.5138C36.4602 67.4088 36.4523 67.3039 36.4441 67.1958C36.4377 67.1075 36.4314 67.0192 36.4248 66.9283C36.4026 66.6846 36.4026 66.6846 36.3343 66.4488C36.2741 66.203 36.2689 65.9983 36.276 65.7461C36.2833 65.0857 36.235 64.4333 36.1804 63.7754C36.172 63.6554 36.1636 63.5354 36.1549 63.4118C36.1405 63.2387 36.1405 63.2387 36.1258 63.062C36.1176 62.9581 36.1095 62.8543 36.1011 62.7473C36.0287 62.4187 35.8897 62.2549 35.68 61.9939C35.6419 61.635 35.6249 61.3915 35.8 61.0696C36.2224 60.1868 35.8468 58.8884 35.695 57.9692C35.6742 57.8354 35.6534 57.7017 35.632 57.5639C35.4593 56.4397 35.4593 56.4397 34.9632 55.4253C34.9608 55.187 34.9608 55.187 34.9856 54.8974C34.9973 54.2319 34.8731 53.6328 34.7093 52.9913C34.6868 52.8971 34.6643 52.8028 34.6412 52.7057C34.5065 52.2067 34.3687 51.8779 33.9989 51.5063C33.5263 51.0109 33.4995 50.4874 33.4398 49.8316C33.4158 49.6137 33.3915 49.3957 33.367 49.1778C33.3552 49.0659 33.3434 48.954 33.3313 48.8387C33.2922 48.5193 33.2364 48.2077 33.1756 47.8916C32.9905 46.8374 32.9367 45.7676 32.8566 44.7019C32.5764 41.0213 33.5767 38.656 32.343 35.4294C32.2982 35.3216 32.1543 34.895 32.1081 34.784C32.0676 34.689 31.856 34.1779 31.8143 34.08C31.7167 33.7704 31.5206 33.4934 31.1094 32.848C31.3599 32.6293 31.4733 32.4906 31.7556 32.32C31.8331 32.2725 32.3807 31.8997 32.4605 31.8507C34.3041 30.736 35.0488 30.1422 37.0663 29.3766C39.3174 28.5206 41.5433 27.626 43.73 26.6214C43.8817 26.5519 43.8817 26.5519 44.0365 26.481C45.7095 25.7582 45.7095 25.7582 47.2323 24.7886C47.9669 24.3208 48.3219 24.2241 48.9094 23.8721Z" fill="#0A0A0A"/>
</mask>
<g mask="url(#mask0_661_22505)">
<path d="M32.0683 92.6383C32.1482 91.1099 32.2953 89.6133 32.2316 87.9828C33.2766 83.8251 31.844 75.3801 31.844 75.3801C31.8641 72.9304 32.2724 70.686 31.0861 68.6144C31.0861 68.6111 31.0861 68.6079 31.0813 68.6029C30.754 67.4365 30.383 66.2973 29.983 65.1841L29.9831 65.1824C29.9785 65.1514 29.9691 65.1187 29.9646 65.0828C29.9509 64.9882 29.9374 64.8805 29.9191 64.7614L29.9191 64.7597C29.9337 64.7468 29.9482 64.7355 29.9676 64.7227C29.9676 64.7227 29.9676 64.7227 29.9676 64.721C29.9676 64.7129 29.9727 64.6787 29.9732 64.6184C29.9886 64.5044 29.9999 64.2975 30.0119 64.0091L30.0119 64.0075C30.0071 64.0058 30.012 64.0026 30.012 64.0009C30.0124 63.9569 30.0176 63.9097 30.018 63.8608C30.0232 63.812 30.0236 63.7614 30.024 63.7093C30.037 63.2954 30.0462 62.7641 30.0369 62.1332C30.0374 62.0762 30.0331 62.0191 30.0335 61.9604C30.0297 61.8447 30.0258 61.7256 30.022 61.6034C30.0177 61.543 30.0182 61.4811 30.0139 61.4175C30.0145 61.3507 30.0102 61.2838 30.006 61.2153C30.0018 61.1321 29.9977 61.0473 29.9936 60.9609C29.9854 60.7881 29.9772 60.6103 29.9643 60.4277C29.9602 60.3364 29.9514 60.2434 29.9473 60.1504C29.9038 59.5878 29.851 58.9842 29.7744 58.3447C29.7566 58.1717 29.7339 57.9955 29.7114 57.816C29.6931 57.692 29.6749 57.568 29.6567 57.4407C29.6432 57.3232 29.6249 57.2057 29.6066 57.0866C29.4332 55.9246 29.198 54.6709 28.8719 53.3496C28.8626 53.3104 28.8533 53.2712 28.844 53.2304C28.8255 53.1471 28.8068 53.072 28.7881 53.005C28.7835 52.9821 28.774 52.9608 28.7694 52.9396L28.7695 52.9331C28.7719 52.6365 37.8367 59.555 40.9243 70.4375C40.9243 70.4375 43.2476 85.3039 42.9286 89.5669C43.2896 91.3255 43.3967 92.9366 43.5998 94.5911L32.0683 92.6383Z" fill="#CAF627"/>
<path d="M90.6489 93.2303C90.6162 91.7251 90.5224 90.2496 90.6215 88.6477C89.7882 84.5327 91.2939 76.2628 91.2939 76.2628C91.3388 73.8531 91.0291 71.6357 92.1496 69.6277C92.1497 69.6245 92.1497 69.6213 92.1542 69.6166C92.4786 68.4775 92.8416 67.3664 93.2301 66.2814L93.2301 66.2798C93.235 66.2494 93.2443 66.2175 93.2492 66.1824C93.264 66.0896 93.2789 65.984 93.2984 65.8673L93.2985 65.8657C93.2857 65.8526 93.2729 65.8412 93.2558 65.828C93.2558 65.828 93.2558 65.828 93.2559 65.8264C93.256 65.8184 93.2523 65.7847 93.2534 65.7253C93.2425 65.6129 93.2376 65.4091 93.2342 65.1252L93.2343 65.1236C93.2386 65.122 93.2344 65.1188 93.2344 65.1171C93.2352 65.0739 93.2317 65.0273 93.2326 64.9792C93.2292 64.931 93.2301 64.8813 93.2311 64.83C93.23 64.4226 93.2354 63.8999 93.2599 63.2797C93.261 63.2236 93.2664 63.1675 93.2674 63.1098C93.2739 62.9961 93.2804 62.8791 93.287 62.7589C93.2924 62.6997 93.2935 62.6388 93.299 62.5763C93.3002 62.5106 93.3058 62.4449 93.3114 62.3777C93.3172 62.296 93.3231 62.2127 93.329 62.1278C93.3409 61.958 93.3528 61.7834 93.3691 61.6041C93.3751 61.5144 93.3855 61.4232 93.3915 61.3319C93.4451 60.7796 93.5081 60.1873 93.5934 59.5602C93.6139 59.3906 93.6388 59.2179 93.6638 59.0419C93.6833 58.9204 93.7029 58.7989 93.7226 58.6741C93.7377 58.5589 93.7572 58.4438 93.7767 58.3271C93.9625 57.1887 94.2063 55.9615 94.5337 54.6701C94.543 54.6318 94.5524 54.5934 94.5618 54.5535C94.5807 54.4721 94.5994 54.3987 94.6179 54.3332C94.6227 54.3109 94.6317 54.2902 94.6364 54.2694L94.6365 54.263C94.642 53.9712 86.3093 60.5505 83.252 71.1766C83.252 71.1766 80.78 85.7396 80.9574 89.9401C80.5875 91.6607 80.4497 93.2425 80.2246 94.8646L90.6489 93.2303Z" fill="#CAF627"/>
</g>
<mask id="mask1_661_22505" style="mask-type:alpha" maskUnits="userSpaceOnUse" x="122" y="24" width="63" height="104">
<path d="M165.319 24.3462C165.49 24.3416 165.49 24.3416 165.665 24.3369C166.696 24.3342 167.499 24.6977 168.398 25.1755C169.003 25.4847 169.618 25.751 170.245 26.0123C171.396 26.495 172.512 27.039 173.631 27.5903C174.95 28.2395 176.275 28.8663 177.626 29.4472C177.699 29.4786 177.772 29.51 177.847 29.5423C178.537 29.8385 179.229 30.1295 179.924 30.4142C181.585 31.0957 183.067 31.9435 184.546 32.9629C184.477 33.4557 184.303 33.7899 184.055 34.218C183.096 36.0416 182.9 38.2438 182.552 40.2528C182.535 40.3516 182.518 40.4504 182.501 40.5522C182.483 40.6509 182.466 40.7496 182.449 40.8513C182.145 42.5996 181.799 44.3525 181.115 45.9983C180.711 46.9756 180.538 47.892 180.426 48.9414C180.122 51.6505 180.122 51.6505 179.547 52.8094C179.28 53.3536 179.14 53.7895 179.126 54.3971C179.123 54.4978 179.119 54.5986 179.116 54.7024C179.11 54.9118 179.105 55.1213 179.1 55.3308C179.077 55.9867 178.946 56.4304 178.682 57.0371C178.631 57.3915 178.622 57.7436 178.616 58.1013C178.601 58.7384 178.55 59.2501 178.33 59.8555C178.289 60.2396 178.286 60.629 178.385 61.0046C179.08 63.9256 178.432 67.4203 178.162 70.386C177.844 73.7518 177.844 73.7518 177.919 77.1253C177.987 77.9701 177.999 78.8107 178 79.6579C178.001 79.8027 178.003 79.9474 178.004 80.0965C178.005 80.7616 177.985 81.3817 177.846 82.0332C177.722 82.635 177.784 83.0818 177.956 83.6654C178.001 83.8311 178.046 83.9968 178.09 84.1627C178.112 84.2425 178.133 84.3223 178.155 84.4046C178.686 86.5303 178.404 88.9133 177.363 90.8307C177.245 91.3336 177.345 91.7234 177.443 92.2259C177.534 92.7676 177.553 93.3051 177.577 93.8532C177.652 95.5211 177.917 97.0445 178.366 98.6515C178.741 100.08 178.936 101.57 178.932 103.045C178.932 103.188 178.932 103.188 178.932 103.334C178.932 103.534 178.932 103.735 178.931 103.935C178.931 104.234 178.931 104.533 178.932 104.832C178.932 105.788 178.913 106.735 178.849 107.689C178.797 108.478 178.821 109.238 178.886 110.028C178.918 110.501 178.924 110.968 178.919 111.442C178.919 111.524 178.918 111.606 178.917 111.691C178.915 111.86 178.913 112.029 178.912 112.198C178.897 113.579 178.915 114.944 179.051 116.32C179.12 117.022 179.172 117.722 179.21 118.426C179.218 118.56 179.218 118.56 179.225 118.697C179.244 119.057 179.263 119.416 179.281 119.776C179.323 120.654 179.385 121.48 179.62 122.331C179.635 122.71 179.635 122.71 179.62 123.057C179.599 123.557 179.659 123.87 179.854 124.327C179.954 124.841 180.004 125.331 179.906 125.846C179.61 126.271 179.162 126.41 178.671 126.527C178.477 126.557 178.477 126.557 178.279 126.587C178.13 126.61 177.982 126.633 177.828 126.657C177.666 126.68 177.503 126.704 177.34 126.727C177.256 126.74 177.172 126.752 177.085 126.765C174.017 127.214 170.933 127.49 167.84 127.696C167.683 127.707 167.683 127.707 167.521 127.718C163.68 127.975 159.836 127.992 155.988 127.99C155.863 127.99 155.739 127.99 155.611 127.99C151.256 127.989 147.144 127.938 142.794 127.733C142.602 127.724 141.64 127.749 141.445 127.733C131.183 126.857 130.362 126.681 127.664 126.089C126.945 125.008 127.458 123.491 127.686 122.299C127.782 121.861 127.782 121.861 127.902 121.496C128.056 120.959 128.055 120.429 128.061 119.874C128.063 119.763 128.065 119.653 128.067 119.539C128.073 119.188 128.078 118.836 128.082 118.485C128.087 118.135 128.093 117.785 128.099 117.436C128.103 117.219 128.106 117.002 128.108 116.785C128.117 116.252 128.143 115.727 128.195 115.196C128.24 114.736 128.257 114.296 128.228 113.834C128.221 113.704 128.214 113.574 128.207 113.441C128.2 113.306 128.192 113.171 128.185 113.031C128.065 110.272 128.316 107.456 129.145 104.808C129.387 103.941 129.369 103.055 129.38 102.161C129.384 101.904 129.389 101.648 129.394 101.391C129.397 101.221 129.4 101.051 129.403 100.881C129.413 100.323 129.451 99.7726 129.5 99.2163C129.549 98.5525 129.493 97.9865 129.364 97.3367C129.259 96.6614 129.276 95.98 129.282 95.2982C129.284 95.0475 129.285 94.7969 129.285 94.5462C129.287 93.8135 129.319 93.1111 129.424 92.3849C129.436 92.1105 129.444 91.8358 129.448 91.5611C129.451 91.4039 129.455 91.2467 129.458 91.0895C129.459 91.0085 129.461 90.9275 129.462 90.8441C129.49 89.491 129.56 88.1751 129.82 86.8435C129.964 85.9589 129.888 85.3348 129.57 84.5021C128.773 82.2548 128.472 80.1366 129.196 77.8299C129.496 76.7061 129.444 75.4891 129.402 74.3367C129.394 74.1254 129.394 74.1254 129.386 73.9098C129.327 72.5316 129.208 71.1593 129.079 69.7861C129.069 69.677 129.059 69.5679 129.049 69.4556C129.02 69.1425 128.989 68.8296 128.959 68.5168C128.95 68.4233 128.941 68.3299 128.932 68.2336C128.88 67.7191 128.779 67.2737 128.603 66.7841C128.572 66.5158 128.551 66.2464 128.537 65.9768C128.513 65.5476 128.484 65.128 128.425 64.7019C128.364 64.2232 128.357 63.7505 128.365 63.2684C128.366 63.0938 128.368 62.9192 128.369 62.7446C128.372 62.474 128.375 62.2035 128.379 61.933C128.383 61.6686 128.385 61.4043 128.387 61.1399C128.388 61.0604 128.39 60.9809 128.392 60.8989C128.395 60.314 128.284 59.828 128.133 59.2683C128.113 58.9072 128.113 58.5696 128.173 58.2123C128.351 57.0698 128.145 55.7601 127.772 54.6686C127.649 54.2877 127.636 53.9651 127.628 53.5654C127.571 52.3773 127.26 51.2547 126.961 50.1084C126.926 49.9739 126.891 49.8393 126.855 49.7007C126.817 49.5582 126.78 49.4157 126.742 49.2689C126.684 49.0434 126.625 48.8179 126.566 48.5923C126.526 48.4384 126.486 48.2844 126.446 48.1305C126.093 46.7809 125.779 45.4249 125.487 44.0608C125.313 43.2634 125.099 42.5031 124.832 41.7323C124.697 41.3069 124.637 40.8914 124.586 40.4494C124.447 39.4597 124.236 38.4894 124.001 37.519C123.961 37.3568 123.923 37.1944 123.885 37.0318C123.58 35.7271 123.135 34.5564 122.387 33.4327C122.387 33.3164 122.387 33.2002 122.387 33.0804C122.611 32.9013 122.825 32.7528 123.068 32.6033C123.179 32.5342 123.179 32.5342 123.292 32.4638C123.536 32.3143 123.782 32.1683 124.029 32.0235C124.108 31.9769 124.187 31.9304 124.268 31.8824C125.592 31.1177 126.979 30.5441 128.399 29.9878C130.273 29.2525 132.098 28.4093 133.927 27.5683C134.27 27.4106 134.613 27.2534 134.957 27.0961C135.198 26.9854 135.438 26.8739 135.679 26.7624C136.536 26.3676 137.396 26.0056 138.288 25.6967C138.79 25.5179 139.19 25.2792 139.627 24.9774C140.395 24.6094 141.141 24.5741 141.98 24.5884C142.113 24.5894 142.245 24.5903 142.382 24.5914C143.664 24.608 144.944 24.6689 146.224 24.7261C151.345 24.955 156.423 24.8221 161.539 24.5085C162.798 24.4316 164.057 24.363 165.319 24.3462Z" fill="#C91A2F"/>
</mask>
<g mask="url(#mask1_661_22505)">
</g>
</svg>
