<svg width="215" height="150" viewBox="0 0 215 150" fill="none" xmlns="http://www.w3.org/2000/svg">
<path d="M31.1844 32.8721C33.5435 36.1837 33.5709 41.9531 33.8834 45.7709C34.0111 48.8287 34.0111 48.8287 34.815 51.7539C34.934 51.791 35.053 51.8281 35.1755 51.8664C35.2969 52.1494 35.3945 52.4179 35.4835 52.7099C35.5225 52.8332 35.5225 52.8332 35.5622 52.9591C35.6356 53.1942 35.7065 53.4298 35.7764 53.6659C35.8068 53.7665 35.8372 53.8671 35.8685 53.9708C36.0123 54.5036 36.0293 54.9892 35.99 55.5375C35.9968 55.816 35.9968 55.816 36.1902 56.0624C36.387 56.3807 36.4528 56.6147 36.5135 56.9759C36.5335 57.0924 36.5534 57.2089 36.574 57.329C36.5934 57.4517 36.6128 57.5744 36.6327 57.7008C36.6633 57.8891 36.6633 57.8891 36.6945 58.0813C37.1114 60.7255 37.1114 60.7255 36.6177 61.4263C36.6352 61.7622 36.6821 61.929 36.9196 62.1829C37.1624 62.53 37.1602 62.7912 37.1811 63.2048C37.1851 63.2806 37.1891 63.3564 37.1932 63.4345C37.2449 64.5635 37.2289 65.6953 37.2186 66.8249C36.3892 67.1796 35.6679 67.2191 34.7624 67.2115C34.6159 67.2106 34.4693 67.2097 34.3183 67.2087C30.0027 67.1369 24.7565 66.484 20.7539 64.9129C20.7987 64.1872 20.8979 63.5158 21.1187 62.8185C21.4387 61.7919 21.6503 60.7998 21.751 59.7349C21.8822 58.5135 22.077 57.3131 22.3116 56.106C22.3279 56.022 22.3442 55.938 22.3609 55.8515C22.4453 55.418 22.5306 54.9848 22.6163 54.5516C22.7958 53.6444 22.9714 52.7366 23.1458 51.8286C23.1627 51.7403 23.1797 51.652 23.1972 51.561C23.4606 50.1861 23.6905 48.8106 23.8711 47.4238C24.0748 45.8737 24.3787 44.3712 24.84 42.8687C24.8687 42.7754 24.8973 42.6821 24.9268 42.586C25.9833 39.2344 28.2158 35.0378 31.1844 32.8721Z" fill="#192C3F"/>
<path d="M93.5273 33.0703C96.334 34.3353 98.3327 39.2001 99.3301 41.8061C100.186 44.1327 100.518 46.5897 100.87 49.018C100.915 49.3282 100.961 49.6383 101.008 49.9483C101.229 51.4349 101.438 52.9217 101.614 54.4138C101.752 55.5862 101.948 56.7387 102.189 57.8962C102.226 58.078 102.262 58.2598 102.299 58.4417C102.354 58.7153 102.409 58.9888 102.465 59.2623C102.58 59.828 102.69 60.3942 102.796 60.9614C102.836 61.1721 102.836 61.1721 102.876 61.3872C102.924 61.6428 102.971 61.8986 103.018 62.1543C103.154 62.8824 103.192 64.2821 103.192 63.5399C103.192 62.7635 103.222 64.9133 103.192 65.2271C100.34 67.5258 92.5474 67.9277 88.9993 67.782C87.979 67.6747 87.979 67.6747 87.5985 67.4196C87.4114 64.5323 87.3917 62.7807 87.5877 61.3247C87.601 61.223 87.6142 61.1214 87.6279 61.0167C88.2296 56.4139 87.9363 56.3152 88.467 55.5679C88.467 55.3463 88.7528 55.4514 88.7528 55.0019C88.7633 54.6744 88.6241 54.646 88.7528 54.344C88.7603 54.1691 88.6435 53.7028 88.9377 53.7028C89.2319 53.7028 89.7162 53.5119 89.5967 53.3531C89.1143 52.712 89.1531 52.6048 89.4847 51.7795C89.5793 51.6133 89.6113 51.0075 89.7162 50.8469C90.5864 49.4671 91.0425 47.8112 91.0237 46.2425C91.0148 45.1973 90.9062 44.7748 91.0237 43.7363C91.0344 43.6403 91.0243 42.5157 91.0237 42.862C91.0237 40.3592 91.3492 38.4497 92.3505 36.0428C92.5292 35.6018 93.3732 33.5193 93.5273 33.0703Z" fill="#192C3F"/>
<path d="M184.422 32.8721C185.637 33.3685 186.719 34.7828 187.473 35.8018C187.519 35.8625 187.564 35.9232 187.611 35.9857C190.42 39.7881 191.278 44.4219 191.908 48.9985C192.263 51.5711 192.686 54.1196 193.22 56.662C193.5 58.0019 193.722 59.332 193.89 60.6908C194.015 61.6742 194.206 62.6292 194.448 63.5905C194.576 64.1065 194.664 64.5614 194.632 65.0986C193.846 65.5368 193.063 65.76 192.19 65.9702C192.045 66.0054 191.9 66.0407 191.751 66.077C182.104 68.3821 182.104 68.3821 178.906 67.3251C178.583 67.1177 178.549 66.9549 178.443 66.5799C178.412 66.4088 178.383 66.2372 178.356 66.0654C178.341 65.9713 178.326 65.8773 178.31 65.7804C178.152 64.641 178.18 63.4921 178.205 62.3448C178.208 62.194 178.21 62.0432 178.213 61.8878C178.218 61.6854 178.218 61.6854 178.223 61.4789C178.202 61.1085 178.117 60.8641 177.968 60.5283C177.962 60.2394 177.962 60.2394 177.997 59.9497C178.007 59.8543 178.017 59.759 178.028 59.6608C178.085 59.3564 178.085 59.3564 178.209 59.0209C178.338 58.5917 178.326 58.2504 178.305 57.8037C178.289 57.2553 178.313 56.8115 178.554 56.3095C178.857 55.6746 178.803 55.096 178.784 54.4043C178.794 53.5129 179.043 52.738 179.434 51.9443C179.896 50.9747 180.05 49.9087 180.12 48.8448C180.202 47.6305 180.418 46.5982 180.88 45.4669C181.754 43.3063 182.094 40.9819 182.5 38.7C183.351 33.9417 183.351 33.9417 184.422 32.8721Z" fill="#192C3F"/>
<path d="M122.242 33.0703C122.883 33.2829 123.135 34.0111 123.427 34.5883C123.758 35.3011 123.941 36.0604 124.128 36.8209C124.156 36.9378 124.185 37.0546 124.215 37.175C124.539 38.4992 124.839 39.8222 125.057 41.1676C125.17 41.8267 125.354 42.4534 125.553 43.0911C125.74 43.6988 125.881 44.307 126.006 44.9301C126.166 45.7268 126.359 46.5069 126.58 47.2888C126.93 48.5254 127.225 49.7728 127.513 51.0247C127.546 51.169 127.579 51.3133 127.614 51.462C127.643 51.5911 127.673 51.7201 127.703 51.8531C127.778 52.1826 127.778 52.1826 127.899 52.5265C127.898 52.6999 127.893 52.8733 127.884 53.0466C127.876 53.6585 128.006 54.1894 128.167 54.7772C128.253 55.1085 128.306 55.435 128.34 55.7757C128.398 56.2939 128.488 56.8083 128.57 57.3232C128.606 57.6835 128.606 57.6835 128.488 58.0351C128.477 58.2327 128.473 58.4306 128.473 58.6285C128.473 58.7314 128.473 58.8343 128.472 58.9403C128.47 59.2109 128.47 59.2109 128.606 59.4416C128.62 59.6178 128.628 59.7945 128.632 59.9712C128.636 60.1363 128.636 60.1363 128.64 60.3047C128.642 60.4243 128.645 60.544 128.647 60.6672C128.651 60.8525 128.651 60.8525 128.655 61.0416C128.661 61.3041 128.666 61.5667 128.671 61.8293C128.679 62.2265 128.688 62.6236 128.698 63.0207C128.775 66.6218 128.775 66.6218 128.37 67.5288C127.908 67.775 127.497 67.7961 126.979 67.8026C126.902 67.8036 126.824 67.8046 126.744 67.8056C126.488 67.8079 126.232 67.8079 125.976 67.8072C125.888 67.8071 125.799 67.807 125.708 67.807C123.782 67.8007 121.904 67.5954 120.003 67.2944C119.878 67.2748 119.878 67.2748 119.751 67.2549C117.946 66.9709 116.151 66.6534 114.376 66.2176C114.262 66.1897 114.149 66.1619 114.032 66.1332C113.468 65.9876 112.97 65.8203 112.461 65.5363C112.529 64.5098 112.7 63.5128 112.895 62.5036C112.927 62.337 112.959 62.1705 112.99 62.0039C113.14 61.2191 113.296 60.4365 113.469 59.6563C113.84 57.9777 114.109 56.3149 114.315 54.6101C114.525 52.8851 114.799 51.177 115.102 49.466C115.137 49.2671 115.173 49.0682 115.208 48.8693C115.225 48.7723 115.242 48.6752 115.26 48.5753C115.371 47.9432 115.472 47.3102 115.566 46.6753C115.578 46.5933 115.59 46.5112 115.603 46.4266C115.614 46.346 115.626 46.2654 115.639 46.1823C116.195 42.4134 117.291 38.6382 119.767 35.6488C119.85 35.548 119.85 35.548 119.935 35.445C120.646 34.5824 121.369 33.7768 122.242 33.0703Z" fill="#192C3F"/>
</svg>
