<svg xmlns:xlink="http://www.w3.org/1999/xlink" xmlns="http://www.w3.org/2000/svg" width="24" height="22" viewBox="0 0 24 22" fill="none" class="group-hover:fill-w-green fill-white"><path d="M10.6972 10.9281H5.77339L8.23605 4.10191L10.6972 10.9281ZM11.4861 13.1137L11.981 14.4891L13.7478 12.7742L9.43739 0.829416C9.03844 -0.276472 7.42916 -0.276472 7.03172 0.829416L1.54847 16.0321C1.44982 16.3057 1.46709 16.6061 1.59647 16.8674C1.72585 17.1286 1.95675 17.3292 2.23837 17.425C2.51999 17.5209 2.82927 17.5041 3.09816 17.3784C3.36705 17.2527 3.57353 17.0284 3.67217 16.7548L4.983 13.1137H11.4846H11.4861ZM19.1951 9.54101L11.9525 16.5785C11.5303 16.9884 11.2307 17.5021 11.0857 18.0647L10.5247 20.2473C10.5073 20.3143 10.4953 20.3825 10.4887 20.4513C9.93002 20.4743 9.3705 20.4312 8.82247 20.3231C8.71299 20.2983 8.67249 20.1628 8.72348 20.0637C8.99345 19.5567 9.07294 18.5003 8.11757 18.1258C6.82774 17.6232 5.15097 18.308 3.82515 18.8515C3.27623 19.0758 2.7873 19.274 2.40935 19.3556C1.82893 19.4809 1.13752 19.2609 0.585597 18.9928C0.267641 18.8383 -0.137304 19.1123 0.0456711 19.4095C0.374126 19.9428 0.966545 20.4833 2.0344 20.6115C3.26423 20.7602 4.12061 20.3901 4.99649 20.0142C5.59641 19.7548 6.20383 19.4925 6.94623 19.3906C7.07521 19.3731 7.1637 19.5217 7.1142 19.6383C6.88624 20.1584 6.91473 20.9408 7.58814 21.4508C8.36503 22.0409 10.8742 22.1953 12.557 21.7174L14.3882 21.273C14.9686 21.1317 15.4981 20.8418 15.9195 20.4309L23.1635 13.3934C23.4272 13.1411 23.6369 12.8405 23.7804 12.5091C23.924 12.1777 23.9986 11.8219 24 11.4623C24.0013 11.1027 23.9294 10.7465 23.7884 10.414C23.6473 10.0816 23.44 9.77952 23.1782 9.5253C22.9164 9.27109 22.6054 9.06973 22.2632 8.93283C21.9209 8.79593 21.5541 8.7262 21.184 8.72766C20.8139 8.72912 20.4477 8.80174 20.1066 8.94134C19.7655 9.08093 19.4562 9.28474 19.1966 9.54101H19.1951Z" fill="#FFFFFF"></path></svg>