<svg xmlns:xlink="http://www.w3.org/1999/xlink" width="21" height="23" viewBox="0 0 21 23" fill="none" xmlns="http://www.w3.org/2000/svg" class="group-hover:fill-w-green fill-white"><path d="M12.625 19.7857H15.8125V11.2143H12.625V19.7857ZM9.4375 23V8H19V23H9.4375ZM4.125 23V11.2143H2V8H7.3125V23H4.125Z" fill="#FFFFFF"></path><path d="M4.83 5H3.633L1.631 1.969V5H0.434V0.0859998H1.631L3.633 3.131V0.0859998H4.83V5ZM8.75667 4.132H6.92267L6.62867 5H5.37567L7.15367 0.0859998H8.53967L10.3177 5H9.05067L8.75667 4.132ZM8.44867 3.208L7.83967 1.409L7.23767 3.208H8.44867ZM16.4238 0.0859998V5H15.2268V2.053L14.1278 5H13.1618L12.0558 2.046V5H10.8588V0.0859998H12.2728L13.6518 3.488L15.0168 0.0859998H16.4238ZM18.4816 1.045V2.039H20.0846V2.963H18.4816V4.041H20.2946V5H17.2846V0.0859998H20.2946V1.045H18.4816Z" fill="#FFFFFF"></path></svg>