<svg xmlns:xlink="http://www.w3.org/1999/xlink" xmlns="http://www.w3.org/2000/svg" width="24" height="24" viewBox="0 0 24 24" fill="none" class="group-hover:fill-w-green fill-white"><path opacity="0.5" d="M20.4 0H3.6C2.6461 0.00284891 1.73208 0.383048 1.05756 1.05756C0.383048 1.73208 0.00284891 2.6461 0 3.6V14.232L4.656 9.576C5.34204 8.92303 6.25289 8.55886 7.2 8.55886C8.14711 8.55886 9.05796 8.92303 9.744 9.576L13.1892 13.0404L14.2548 11.9748C14.9311 11.3022 15.8462 10.9247 16.8 10.9247C17.7538 10.9247 18.6689 11.3022 19.3452 11.9748L24 16.632V3.6C23.9972 2.6461 23.617 1.73208 22.9424 1.05756C22.2679 0.383048 21.3539 0.00284891 20.4 0Z" fill="#FFFFFF"></path><path d="M9.744 9.57598C9.05796 8.92301 8.14711 8.55884 7.2 8.55884C6.25289 8.55884 5.34204 8.92301 4.656 9.57598L0 14.232V20.4C0.00284891 21.3539 0.383048 22.2679 1.05756 22.9424C1.73208 23.6169 2.6461 23.9971 3.6 24H20.4C20.8841 23.9997 21.3631 23.9018 21.8085 23.7121C22.2538 23.5224 22.6564 23.2448 22.992 22.896L9.744 9.57598Z" fill="#FFFFFF"></path><path opacity="0.25" d="M23.9998 16.6296L19.345 11.9748C18.6686 11.3023 17.7536 10.9247 16.7998 10.9247C15.8459 10.9247 14.9309 11.3023 14.2546 11.9748L13.189 13.0404L22.987 22.8912C23.6374 22.2252 24.001 21.3312 23.9998 20.4V16.6296Z" fill="#FFFFFF"></path></svg>