<svg xmlns:xlink="http://www.w3.org/1999/xlink" class="group-hover:fill-w-green fill-white" xmlns="http://www.w3.org/2000/svg" width="24" height="24" viewBox="0 0 100 100" fill="white"><g clip-path="url(#clip0_323_95)" fill="#FFFFFF"><path d="M8.62109 37.9333L16.6655 50L24.7099 37.9333L16.6655 25.8677L8.62109 37.9333Z" fill="#FFFFFF"></path><path d="M24.7099 12.0667L16.6655 0L8.62109 12.0667L16.6655 24.1322L24.7099 12.0667Z" fill="#FFFFFF"></path><path d="M16.0877 25L8.04442 12.9333L0 25L8.04442 37.0667L16.0877 25Z" fill="#FFFFFF"></path><path d="M25.2886 12.9333L17.2441 25L25.2886 37.0667L33.333 25L25.2886 12.9333Z" fill="#FFFFFF"></path><path d="M58.0439 12.0667L49.9995 0L41.9551 12.0667L49.9995 24.1322L58.0439 12.0667Z" fill="#FFFFFF"></path><path d="M41.3784 12.9333L33.334 25L41.3784 37.0667L49.4217 25L41.3784 12.9333Z" fill="#FFFFFF"></path><path d="M58.6206 12.9333L50.5762 25L58.6206 37.0667L66.665 25L58.6206 12.9333Z" fill="#FFFFFF"></path><path d="M41.9551 37.9333L49.9995 50L58.0439 37.9333L49.9995 25.8677L41.9551 37.9333Z" fill="#FFFFFF"></path><path d="M91.3779 12.0667L83.3335 0L75.2891 12.0667L83.3335 24.1322L91.3779 12.0667Z" fill="#FFFFFF"></path><path d="M75.2891 37.9333L83.3335 50L91.3779 37.9333L83.3335 25.8677L75.2891 37.9333Z" fill="#FFFFFF"></path><path d="M74.7104 12.9333L66.666 25L74.7104 37.0667L82.7537 25L74.7104 12.9333Z" fill="#FFFFFF"></path><path d="M83.9102 25L91.9546 37.0667L99.999 25L91.9546 12.9333L83.9102 25Z" fill="#FFFFFF"></path><path d="M99.9992 0V0.867778L91.9547 12.9333L91.377 12.0667L99.4203 0H99.9992Z" fill="#FFFFFF"></path><path d="M0.577776 0L8.6222 12.0667L8.04442 12.9333L0 0.867778V0H0.577776Z" fill="#FFFFFF"></path><path d="M32.7542 0L24.7109 12.0667L25.2887 12.9333L33.3331 0.867778L41.3776 12.9333L41.9553 12.0667L33.9109 0H32.7542Z" fill="#FFFFFF"></path><path d="M67.2449 0L75.2893 12.0667L74.7115 12.9333L66.6671 0.867778L58.6227 12.9333L58.0449 12.0667L66.0882 0H67.2449Z" fill="#FFFFFF"></path><path d="M8.62109 87.9333L16.6655 100L24.7099 87.9333L16.6655 75.8677L8.62109 87.9333Z" fill="#FFFFFF"></path><path d="M24.7099 62.0667L16.6655 50L8.62109 62.0667L16.6655 74.1322L24.7099 62.0667Z" fill="#FFFFFF"></path><path d="M16.0877 75L8.04442 62.9333L0 75L8.04442 87.0667L16.0877 75Z" fill="#FFFFFF"></path><path d="M25.2886 62.9333L17.2441 75L25.2886 87.0667L33.333 75L25.2886 62.9333Z" fill="#FFFFFF"></path><path d="M58.0439 62.0667L49.9995 50L41.9551 62.0667L49.9995 74.1322L58.0439 62.0667Z" fill="#FFFFFF"></path><path d="M41.3784 62.9333L33.334 75L41.3784 87.0667L49.4217 75L41.3784 62.9333Z" fill="#FFFFFF"></path><path d="M58.6206 62.9333L50.5762 75L58.6206 87.0667L66.665 75L58.6206 62.9333Z" fill="#FFFFFF"></path><path d="M41.9551 87.9333L49.9995 100L58.0439 87.9333L49.9995 75.8677L41.9551 87.9333Z" fill="#FFFFFF"></path><path d="M91.3779 62.0667L83.3335 50L75.2891 62.0667L83.3335 74.1322L91.3779 62.0667Z" fill="#FFFFFF"></path><path d="M75.2891 87.9333L83.3335 100L91.3779 87.9333L83.3335 75.8677L75.2891 87.9333Z" fill="#FFFFFF"></path><path d="M74.7104 62.9333L66.666 75L74.7104 87.0667L82.7537 75L74.7104 62.9333Z" fill="#FFFFFF"></path><path d="M83.9102 75L91.9546 87.0667L99.999 75L91.9546 62.9333L83.9102 75Z" fill="#FFFFFF"></path><path d="M99.9992 100V99.1322L91.9547 87.0667L91.377 87.9333L99.4203 100H99.9992Z" fill="#FFFFFF"></path><path d="M0.577776 100L8.6222 87.9333L8.04442 87.0667L0 99.1322V100H0.577776Z" fill="#FFFFFF"></path><path d="M32.7542 100L24.7109 87.9333L25.2887 87.0667L33.3331 99.1322L41.3776 87.0667L41.9553 87.9333L33.9109 100H32.7542Z" fill="#FFFFFF"></path><path d="M67.2449 100L75.2893 87.9333L74.7115 87.0667L66.6671 99.1322L58.6227 87.0667L58.0449 87.9333L66.0882 100H67.2449Z" fill="#FFFFFF"></path><path d="M91.9547 37.0667L91.377 37.9333L99.4203 50L91.377 62.0667L91.9547 62.9333L99.9992 50.8678V50V49.1322L91.9547 37.0667Z" fill="#FFFFFF"></path><path d="M8.6222 37.9333L8.04442 37.0667L0 49.1322V50V50.8678L8.04442 62.9333L8.6222 62.0667L0.577776 50L8.6222 37.9333Z" fill="#FFFFFF"></path><path d="M41.9553 37.9333L41.3776 37.0667L33.3331 49.1322L25.2887 37.0667L24.7109 37.9333L32.7542 50L24.7109 62.0667L25.2887 62.9333L33.3331 50.8678L41.3776 62.9333L41.9553 62.0667L33.9109 50L41.9553 37.9333Z" fill="#FFFFFF"></path><path d="M75.2893 37.9333L74.7115 37.0667L66.6671 49.1322L58.6227 37.0667L58.0449 37.9333L66.0882 50L58.0449 62.0667L58.6227 62.9333L66.6671 50.8678L74.7115 62.9333L75.2893 62.0667L67.2449 50L75.2893 37.9333Z" fill="#FFFFFF"></path></g><defs><clipPath id="clip0_323_95"><rect width="100" height="100" fill="white"></rect></clipPath></defs></svg>