<svg xmlns:xlink="http://www.w3.org/1999/xlink" xmlns="http://www.w3.org/2000/svg" width="27" height="21" viewBox="0 0 27 21" fill="none" class="group-hover:fill-w-green fill-white"><path d="M3.90994 7.46156C1.30331 6.41944 0 5.89837 0 5.25C0 4.60163 1.30331 4.08188 3.90994 3.03844L7.59544 1.5645C10.2021 0.521062 11.5067 0 13.125 0C14.7446 0 16.0479 0.521062 18.6546 1.5645L22.3401 3.03844C24.9467 4.08056 26.25 4.60163 26.25 5.25C26.25 5.89837 24.9467 6.41813 22.3401 7.46156L18.6546 8.9355C16.0479 9.98025 14.7433 10.5 13.125 10.5C11.5054 10.5 10.2021 9.97894 7.59544 8.93681L3.91125 7.46025L3.90994 7.46156Z" fill="#FFFFFF"></path><path fill-rule="evenodd" clip-rule="evenodd" d="M0 5.25C0 5.89837 1.30331 6.41813 3.90994 7.46156L7.59544 8.9355C10.2021 9.98025 11.5067 10.5 13.125 10.5C14.7446 10.5 16.0479 9.97894 18.6546 8.93681L22.3401 7.46156C24.9467 6.41944 26.25 5.89837 26.25 5.25C26.25 4.60163 24.9467 4.08188 22.3401 3.03844L18.6546 1.5645C16.0479 0.521062 14.7433 0 13.125 0C11.5054 0 10.2021 0.521062 7.59544 1.5645L3.91125 3.03844C1.30331 4.08056 0 4.60163 0 5.25Z" fill="#FFFFFF"></path><path opacity="0.7" d="M4.94287 7.87502L3.90994 8.28845C1.30331 9.33058 0 9.85295 0 10.5C0 11.1471 1.30331 11.6681 3.90994 12.7116L7.59544 14.1855C10.2021 15.2303 11.5067 15.75 13.125 15.75C14.7446 15.75 16.0479 15.229 18.6546 14.1868L22.3401 12.7116C24.9467 11.6695 26.25 11.1471 26.25 10.5C26.25 9.85295 24.9467 9.33189 22.3401 8.28845L21.3071 7.87502L18.6546 8.93683C16.0479 9.97895 14.7433 10.5 13.125 10.5C11.5054 10.5 10.2021 9.97895 7.59544 8.93683L4.94419 7.87502H4.94287Z" fill="#FFFFFF"></path><path opacity="0.4" d="M4.94287 13.125L3.90994 13.5384C1.30331 14.5806 0 15.1029 0 15.75C0 16.3984 1.30331 16.9181 3.90994 17.9616L7.59544 19.4355C10.2021 20.4803 11.5067 21 13.125 21C14.7446 21 16.0479 20.4789 18.6546 19.4355L22.3401 17.9616C24.9467 16.9194 26.25 16.3984 26.25 15.75C26.25 15.1029 24.9467 14.5819 22.3401 13.5384L21.3071 13.125L18.6546 14.1868C16.0479 15.2289 14.7433 15.75 13.125 15.75C11.5054 15.75 10.2021 15.2289 7.59544 14.1868L4.94419 13.125H4.94287Z" fill="#FFFFFF"></path></svg>