<svg xmlns:xlink="http://www.w3.org/1999/xlink" class="group-hover:fill-w-green fill-white" xmlns="http://www.w3.org/2000/svg" width="27" height="27" viewBox="0 0 100 100" fill="white"><path d="M73.1347 38.7349C49.1279 83.5927 50.2783 83.8614 45.4423 83.8614H14.1923C13.1346 83.8614 12.2692 82.8713 12.2692 81.6612C12.2692 80.451 13.1346 79.461 14.1923 79.461H45.4423C46.8583 79.461 47.9423 78.1607 47.9423 76.6006C47.9423 75.8306 47.6923 75.1265 47.2308 74.5985C46.75 74.0264 46.1346 73.7403 45.4423 73.7403H39.6538C39.6538 73.7403 39.6538 73.7403 39.6346 73.7403H7.07691C3.17312 73.7624 0 77.3928 0 81.8592C0 86.3476 3.19237 90 7.09616 90H75.2693L100 38.7349H73.1347ZM39.6346 54.5984H4.94232C3.61539 54.5984 2.40385 55.2145 1.51919 56.2046C0.594076 57.3691 0 58.5685 0 60.253V63.6853C0 66.8097 2.23083 69.3399 4.94232 69.3399H7.05766C7.07691 69.3399 7.09616 69.3399 7.09616 69.3399H39.6538C42.3654 69.3399 44.5769 66.8097 44.5769 63.6853V60.253C44.5769 57.1507 42.3654 54.5984 39.6346 54.5984ZM36.4038 64.1694H8.19233C7.13466 64.1694 6.26925 63.2013 6.26925 61.9692C6.26925 60.7591 7.13466 59.769 8.19233 59.769H36.4038C37.4615 59.769 38.3269 60.7591 38.3269 61.9692C38.3269 63.2013 37.4615 64.1694 36.4038 64.1694ZM67.0192 10H41C39.2795 10 37.6314 11.1956 37.3077 11.9362L37.1346 12.1342C37.11 12.1905 6.40278 50.1517 6.36538 50.1979H39.6346C44.1346 50.1979 47.8269 54.1144 48.3269 59.109L71.0385 18.9329C71.0577 18.9109 71.0577 18.8888 71.077 18.8448L71.2307 18.5808C71.6924 17.7227 71.9424 16.7106 71.9424 15.6546C71.9424 12.5302 69.7308 10 67.0192 10ZM72.9039 28.9218C72.7693 28.6578 72.3654 27.9978 71.5192 27.9978H70.5001C70.0232 28.841 48.0872 67.9212 47.3846 68.3498C47.1923 68.7458 47 69.142 46.7885 69.5159C47.9808 69.802 49.0962 70.462 49.9615 71.4961C50.2115 71.7602 50.4231 72.0682 50.6154 72.3982L72.8847 30.814C73.3269 29.9779 73.0577 29.2079 72.9039 28.9218Z" fill="#FFFFFF"></path></svg>